<svg xmlns="http://www.w3.org/2000/svg" xmlns:xlink="http://www.w3.org/1999/xlink" width="100%" height="100%" viewBox="0 0 320 180" version="1.0">
  <defs>
    <linearGradient id="c">
      <stop offset="0" stop-color="#2d2835"/>
      <stop offset="1" stop-color="#5d536c" stop-opacity=".482"/>
    </linearGradient>
    <linearGradient id="b">
      <stop offset="0" stop-color="#d7eef4"/>
      <stop offset="1" stop-color="#2c89a0"/>
    </linearGradient>
    <linearGradient id="a">
      <stop offset="0" stop-color="#483737"/>
      <stop offset="1" stop-color="#483737" stop-opacity="0"/>
    </linearGradient>
    <linearGradient xlink:href="#c" id="d" x1="-34.295" y1="-58.69" x2="320.673" y2="185.969" gradientUnits="userSpaceOnUse"/>
  </defs>
  <path fill="#3e3748" d="M0 0h320v180H0z"/>
  <path d="M0 158.751A1.508 68.758 0 01-1.508 90 1.508 68.758 0 010 21.249h320A1.508 68.758 0 01321.508 90 1.508 68.758 0 01320 158.751z" color="#000" overflow="visible" opacity=".388" fill="#dedbe3"/>
  <path fill="url(#d)" d="M0 0h320v180H0z"/>
  <path d="M0 178.492h320" opacity=".388" fill="none" stroke="#dedbe3" stroke-width="3.016" stroke-linecap="round"/>
  <path d="M96.753 49.093v-3.99h-4.021V42.35h4.02v-3.99h2.682v3.99h4.031v2.754h-4.031v3.99z" fill="#7e818e" stroke-width=".536"/>
  <path d="M78.54 115.165v-2.928h-2.951v-2.021h2.95v-2.928h1.968v2.928h2.958v2.02h-2.958v2.929z" fill="#877973" stroke-width=".393"/>
  <path d="M49.698 99.808V95.02h-4.824v-3.304h4.824v-4.786h3.217v4.786h4.836v3.304h-4.836v4.787z" fill="#7e818e" stroke-width=".643"/>
  <path d="M88.806 144.808v-4.256h-4.289v-2.937h4.29v-4.256h2.858v4.256h4.3v2.937h-4.3v4.256z" fill="#898e9b" stroke-width=".572"/>
  <path d="M43.622 155.165v-10.097H33.446v-6.97h10.176v-10.096h6.784V138.1h10.202v6.97H50.406v10.096z" fill="#6e5c5e" stroke-width="1.357"/>
  <path d="M201.176 85a44.643 44.643 0 01-44.643 44.643A44.643 44.643 0 01111.89 85a44.643 44.643 0 0144.643-44.643A44.643 44.643 0 01201.176 85z" fill="#b5f2cd"/>
  <path d="M113.693 73.299c-3.92.333-7.574.713-10.916 1.133-6.683.84-12.103 1.835-15.963 2.982-1.93.574-3.467 1.172-4.646 1.897-1.179.724-2.234 1.712-2.234 3.189s1.055 2.465 2.234 3.19c1.179.724 2.717 1.322 4.646 1.896 3.86 1.147 9.28 2.142 15.963 2.982 13.367 1.68 31.744 2.713 52.045 2.713 20.301 0 38.676-1.032 52.043-2.713 6.684-.84 12.104-1.835 15.963-2.982 1.93-.574 3.468-1.172 4.647-1.897 1.178-.724 2.234-1.712 2.234-3.189s-1.056-2.465-2.234-3.19c-1.18-.724-2.717-1.322-4.647-1.896-3.86-1.147-9.28-2.142-15.963-2.982-2.159-.272-4.493-.52-6.9-.756a44.643 44.643 0 01.717 3.207c2.017.205 3.964.42 5.793.65 6.585.828 11.901 1.819 15.463 2.877 1.78.53 3.125 1.089 3.9 1.565.407.25.586.432.67.525-.084.093-.263.275-.67.525-.775.476-2.12 1.036-3.9 1.565-3.562 1.058-8.878 2.049-15.463 2.877-13.172 1.656-31.458 2.687-51.653 2.687s-38.483-1.031-51.654-2.687c-6.586-.828-11.902-1.819-15.463-2.877-1.78-.53-3.126-1.089-3.9-1.565-.407-.25-.587-.432-.67-.525.083-.093.263-.275.67-.525.774-.476 2.12-1.036 3.9-1.565 3.561-1.058 8.877-2.049 15.463-2.877 3-.377 6.297-.718 9.791-1.025a44.643 44.643 0 01.746-3.21h-.012z" color="#000" overflow="visible" opacity=".42" fill="#ff7f2a"/>
  <path d="M117.705 107.108a274.278 274.278 0 00-6.918 8.52c-4.132 5.32-7.26 9.856-9.179 13.397-.959 1.77-1.623 3.28-1.944 4.626-.322 1.346-.369 2.791.675 3.835 1.044 1.045 2.49.997 3.835.676 1.346-.322 2.857-.986 4.627-1.945 3.54-1.918 8.076-5.047 13.396-9.178 10.64-8.264 24.365-20.528 38.72-34.883 14.355-14.355 26.618-28.079 34.881-38.719 4.132-5.32 7.261-9.856 9.18-13.396.958-1.77 1.622-3.28 1.944-4.627.321-1.345.368-2.79-.676-3.835-1.044-1.044-2.49-.997-3.835-.675-1.346.321-2.856.985-4.627 1.944-3.54 1.918-8.076 5.047-13.396 9.179a257.853 257.853 0 00-5.414 4.345 44.643 44.643 0 012.775 1.76c1.571-1.28 3.1-2.505 4.556-3.636 5.242-4.071 9.702-7.13 12.968-8.9 1.634-.884 2.98-1.44 3.865-1.651.464-.111.72-.109.845-.102.007.125.009.38-.102.845-.212.884-.767 2.23-1.652 3.864-1.77 3.267-4.828 7.726-8.9 12.968-8.143 10.485-20.343 24.145-34.623 38.425-14.28 14.28-27.941 26.481-38.426 34.624-5.242 4.072-9.701 7.13-12.968 8.9-1.633.885-2.98 1.44-3.864 1.652-.465.11-.72.109-.845.102-.007-.125-.01-.38.102-.845.211-.885.767-2.231 1.652-3.865 1.77-3.266 4.828-7.726 8.9-12.968a267.587 267.587 0 016.197-7.648 44.643 44.643 0 01-1.741-2.797l-.008.008z" color="#000" overflow="visible" opacity=".757" fill="#f95"/>
  <path d="M195.397 107.077a274.278 274.278 0 016.918 8.52c4.131 5.32 7.26 9.856 9.178 13.396.96 1.77 1.623 3.28 1.945 4.626.321 1.346.369 2.792-.676 3.836-1.044 1.044-2.49.996-3.835.675-1.345-.322-2.856-.986-4.626-1.945-3.54-1.918-8.077-5.046-13.397-9.178-10.64-8.264-24.364-20.528-38.72-34.883-14.354-14.355-26.617-28.079-34.88-38.718-4.133-5.32-7.262-9.857-9.18-13.397-.959-1.77-1.623-3.28-1.944-4.626-.322-1.346-.369-2.791.675-3.836 1.044-1.044 2.49-.996 3.836-.675 1.345.322 2.856.986 4.626 1.945 3.54 1.918 8.077 5.046 13.396 9.178a257.853 257.853 0 015.414 4.345 44.643 44.643 0 00-2.774 1.76 245.985 245.985 0 00-4.556-3.635c-5.243-4.072-9.702-7.13-12.969-8.9-1.633-.885-2.98-1.44-3.864-1.652-.465-.11-.72-.109-.845-.102-.007.125-.01.38.102.845.211.884.767 2.231 1.652 3.864 1.77 3.267 4.828 7.726 8.9 12.969 8.142 10.484 20.343 24.144 34.623 38.424 14.28 14.28 27.94 26.482 38.425 34.624 5.242 4.072 9.702 7.13 12.968 8.9 1.634.885 2.98 1.44 3.865 1.652.464.11.72.109.845.102.007-.125.009-.38-.102-.845-.212-.884-.767-2.231-1.652-3.864-1.77-3.267-4.828-7.726-8.9-12.969a267.587 267.587 0 00-6.198-7.648 44.643 44.643 0 001.742-2.797l.008.008z" color="#000" overflow="visible" opacity=".61" fill="#ffb380"/>
  <path d="M69.433 64.807v-2.396h-2.416v-1.655h2.416V58.36h1.61v2.397h2.422v1.655h-2.422v2.396z" style="fill:#6f6565;fill-opacity:1;stroke-width:0.32209" fill="#6f6565" stroke-width=".322"/>
  <g opacity=".771" fill="#a4b2bc" color="#000">
    <path d="M256.728 71.757c-9.065 0-16.442 7.378-16.442 16.443 0 9.065 7.377 16.442 16.442 16.442 9.065 0 16.442-7.377 16.442-16.442 0-9.065-7.377-16.443-16.442-16.443zm0 2.7A13.723 13.723 0 01270.472 88.2a13.723 13.723 0 01-13.744 13.743A13.722 13.722 0 01242.985 88.2a13.723 13.723 0 0113.743-13.744z" overflow="visible"/>
    <path d="M256.728 76.793c-6.289 0-11.407 5.118-11.407 11.407 0 6.288 5.118 11.406 11.407 11.406s11.407-5.118 11.407-11.406c0-6.289-5.118-11.407-11.407-11.407zm0 1.872a9.52 9.52 0 019.534 9.535 9.52 9.52 0 01-9.534 9.534 9.52 9.52 0 01-9.534-9.534 9.52 9.52 0 019.534-9.535z" overflow="visible"/>
  </g>
  <g opacity=".469" fill="#a2826f" color="#000">
    <path d="M261.014 27.46c-5.324 0-9.657 4.334-9.657 9.657 0 5.324 4.333 9.657 9.657 9.657 5.323 0 9.656-4.333 9.656-9.657 0-5.323-4.333-9.656-9.656-9.656zm0 1.586a8.06 8.06 0 018.071 8.071 8.06 8.06 0 01-8.071 8.072 8.06 8.06 0 01-8.072-8.072 8.06 8.06 0 018.072-8.071z" overflow="visible"/>
    <path d="M261.014 30.418a6.708 6.708 0 00-6.7 6.7c0 3.693 3.006 6.698 6.7 6.698 3.693 0 6.699-3.005 6.699-6.699 0-3.693-3.006-6.699-6.7-6.699zm0 1.1c3.099 0 5.6 2.5 5.6 5.6 0 3.098-2.501 5.599-5.6 5.599-3.1 0-5.6-2.5-5.6-5.6 0-3.099 2.5-5.6 5.6-5.6z" overflow="visible"/>
  </g>
  <g opacity=".517" fill="#c69770" color="#000">
    <path d="M239.34 118.565a5.735 5.735 0 00-5.729 5.728 5.735 5.735 0 005.728 5.727 5.735 5.735 0 005.728-5.727 5.735 5.735 0 00-5.728-5.728zm0 .94a4.78 4.78 0 014.787 4.788 4.78 4.78 0 01-4.788 4.787 4.78 4.78 0 01-4.787-4.787 4.78 4.78 0 014.787-4.788z" overflow="visible"/>
    <path d="M239.34 120.319a3.979 3.979 0 00-3.974 3.974 3.979 3.979 0 003.973 3.973 3.979 3.979 0 003.974-3.973 3.979 3.979 0 00-3.974-3.974zm0 .652a3.317 3.317 0 013.32 3.322 3.316 3.316 0 01-3.32 3.32 3.316 3.316 0 01-3.322-3.32 3.316 3.316 0 013.321-3.322z" overflow="visible"/>
  </g>
  <g fill="#a2826f">
    <path d="M320 42.257c-17.546 4.712-30.506 20.75-30.506 39.76 0 19.01 12.96 35.049 30.506 39.76v-7.032c-13.803-4.475-23.748-17.407-23.748-32.727 0-15.32 9.945-28.253 23.748-32.729z"/>
    <path d="M320 57.273c-10.7 2.873-18.605 12.655-18.605 24.249 0 11.593 7.905 21.375 18.605 24.248v-4.289c-8.418-2.73-14.483-10.616-14.483-19.96 0-9.342 6.065-17.23 14.483-19.96z"/>
  </g>
  <g fill="#848795" color="#000">
    <path d="M221.785 33.914a5.735 5.735 0 00-5.727 5.729 5.735 5.735 0 005.727 5.727 5.735 5.735 0 005.728-5.727 5.735 5.735 0 00-5.728-5.729zm0 .94a4.78 4.78 0 014.788 4.789 4.78 4.78 0 01-4.788 4.787 4.78 4.78 0 01-4.787-4.787 4.78 4.78 0 014.787-4.788z" overflow="visible"/>
    <path d="M221.785 35.669a3.979 3.979 0 00-3.973 3.974 3.979 3.979 0 003.973 3.973 3.979 3.979 0 003.974-3.973 3.979 3.979 0 00-3.974-3.974zm0 .652a3.317 3.317 0 013.322 3.322 3.316 3.316 0 01-3.322 3.32 3.316 3.316 0 01-3.32-3.32 3.316 3.316 0 013.32-3.322z" overflow="visible"/>
  </g>
  <path d="M130.682 155.879v-2.928h-2.95v-2.02h2.95v-2.929h1.968v2.928h2.958v2.021h-2.958v2.928zM14.254 107.665v-2.928h-2.951v-2.021h2.95v-2.928h1.968v2.928h2.959v2.02H16.22v2.929z" fill="#898e9b" stroke-width=".393"/>
  <path d="M0 1.508h320" opacity=".388" fill="none" stroke="#dedbe3" stroke-width="3.016" stroke-linecap="round"/>
  <g>
    <path d="M56.825 48.668a13.968 13.968 0 01-13.968 13.968 13.968 13.968 0 01-13.968-13.968A13.968 13.968 0 0142.857 34.7a13.968 13.968 0 0113.968 13.968z" fill="#8ebda1"/>
    <path d="M29.453 45.007c-1.226.104-2.37.223-3.415.354-2.091.263-3.787.575-4.995.934-.603.18-1.084.366-1.453.593-.37.227-.7.536-.7.998 0 .462.33.771.7.998.369.226.85.414 1.453.593 1.208.359 2.904.67 4.995.933 4.182.526 9.932.85 16.284.85 6.351 0 12.1-.324 16.283-.85 2.09-.263 3.787-.574 4.994-.933.604-.18 1.085-.367 1.454-.593.369-.227.699-.536.699-.998 0-.462-.33-.771-.7-.998-.368-.227-.85-.414-1.453-.593-1.207-.36-2.903-.67-4.994-.934a80.673 80.673 0 00-2.16-.236 13.968 13.968 0 01.225 1.003c.631.064 1.24.132 1.812.204 2.061.259 3.724.569 4.838.9.558.166.978.34 1.22.49a.903.903 0 01.21.164.903.903 0 01-.21.164c-.242.15-.662.324-1.22.49-1.114.33-2.777.64-4.838.9-4.12.518-9.842.84-16.16.84-6.319 0-12.04-.322-16.162-.84-2.06-.26-3.724-.57-4.838-.9-.557-.166-.978-.34-1.22-.49a.903.903 0 01-.21-.164.903.903 0 01.21-.164c.242-.15.663-.324 1.22-.49 1.114-.331 2.778-.641 4.838-.9.939-.118 1.97-.225 3.064-.32a13.968 13.968 0 01.233-1.005h-.004z" color="#000" overflow="visible" opacity=".42" fill="#ff7f2a"/>
    <path d="M30.708 55.585a85.815 85.815 0 00-2.164 2.666c-1.293 1.664-2.272 3.084-2.872 4.191-.3.554-.508 1.027-.608 1.448-.1.421-.116.873.211 1.2.327.327.779.312 1.2.211.421-.1.894-.308 1.448-.608 1.107-.6 2.526-1.58 4.191-2.872 3.329-2.585 7.623-6.423 12.114-10.914 4.492-4.491 8.329-8.785 10.914-12.114 1.293-1.665 2.272-3.084 2.872-4.192.3-.553.508-1.026.608-1.447.1-.421.116-.873-.211-1.2-.327-.327-.779-.312-1.2-.211-.421.1-.894.308-1.447.608-1.108.6-2.527 1.58-4.192 2.872-.538.417-1.109.879-1.694 1.36a13.968 13.968 0 01.868.55c.492-.4.97-.784 1.426-1.138 1.64-1.273 3.035-2.23 4.057-2.784.511-.277.933-.45 1.21-.517a.903.903 0 01.264-.032.898.898 0 01-.032.265c-.066.276-.24.698-.517 1.209-.554 1.022-1.51 2.417-2.784 4.057-2.548 3.28-6.365 7.554-10.833 12.022s-8.742 8.286-12.023 10.833c-1.64 1.274-3.035 2.231-4.057 2.785-.511.277-.933.45-1.21.517a.903.903 0 01-.264.032.898.898 0 01.032-.265c.066-.276.24-.698.517-1.209.554-1.022 1.51-2.417 2.785-4.057a83.722 83.722 0 011.939-2.393 13.968 13.968 0 01-.545-.875l-.003.002z" color="#000" overflow="visible" opacity=".757" fill="#f95"/>
    <path d="M55.017 55.575c.793.941 1.518 1.834 2.164 2.666 1.293 1.665 2.272 3.084 2.872 4.191.3.554.507 1.027.608 1.448.1.421.115.873-.211 1.2-.327.327-.78.312-1.2.211-.421-.1-.894-.308-1.448-.608-1.107-.6-2.527-1.58-4.191-2.872-3.33-2.585-7.623-6.423-12.115-10.914-4.491-4.491-8.328-8.785-10.913-12.114-1.293-1.665-2.272-3.084-2.872-4.192-.3-.553-.508-1.026-.609-1.447-.1-.421-.115-.873.212-1.2.326-.327.779-.312 1.2-.211.42.1.893.308 1.447.608 1.108.6 2.527 1.58 4.192 2.872.537.417 1.109.879 1.694 1.36a13.968 13.968 0 00-.869.55c-.491-.4-.97-.784-1.425-1.138-1.64-1.273-3.035-2.23-4.058-2.784-.51-.277-.932-.45-1.209-.517a.903.903 0 00-.264-.032.898.898 0 00.032.265c.066.276.24.698.517 1.209.554 1.022 1.51 2.417 2.784 4.057 2.548 3.28 6.365 7.554 10.833 12.022s8.742 8.286 12.023 10.833c1.64 1.274 3.035 2.231 4.057 2.785.511.277.932.45 1.21.517a.903.903 0 00.264.032.898.898 0 00-.032-.265c-.067-.276-.24-.698-.517-1.209-.554-1.022-1.51-2.417-2.785-4.057a83.722 83.722 0 00-1.939-2.393 13.968 13.968 0 00.545-.875l.002.002z" color="#000" overflow="visible" opacity=".61" fill="#ffb380"/>
    <path d="M55.017 55.575c.793.941 1.518 1.834 2.164 2.666 1.293 1.665 2.272 3.084 2.872 4.191.3.554.507 1.027.608 1.448.1.421.115.873-.211 1.2-.327.327-.78.312-1.2.211-.421-.1-.894-.308-1.448-.608-1.107-.6-2.527-1.58-4.191-2.872-3.33-2.585-7.623-6.423-12.115-10.914-4.491-4.491-8.328-8.785-10.913-12.114-1.293-1.665-2.272-3.084-2.872-4.192-.3-.553-.508-1.026-.609-1.447-.1-.421-.115-.873.212-1.2.326-.327.779-.312 1.2-.211.42.1.893.308 1.447.608 1.108.6 2.527 1.58 4.192 2.872.537.417 1.109.879 1.694 1.36a13.968 13.968 0 00-.869.55c-.491-.4-.97-.784-1.425-1.138-1.64-1.273-3.035-2.23-4.058-2.784-.51-.277-.932-.45-1.209-.517a.903.903 0 00-.264-.032.898.898 0 00.032.265c.066.276.24.698.517 1.209.554 1.022 1.51 2.417 2.784 4.057 2.548 3.28 6.365 7.554 10.833 12.022s8.742 8.286 12.023 10.833c1.64 1.274 3.035 2.231 4.057 2.785.511.277.932.45 1.21.517a.903.903 0 00.264.032.898.898 0 00-.032-.265c-.067-.276-.24-.698-.517-1.209-.554-1.022-1.51-2.417-2.785-4.057a83.722 83.722 0 00-1.939-2.393 13.968 13.968 0 00.545-.875l.002.002z" color="#000" overflow="visible" opacity=".61" fill="#ffb380"/>
  </g>
  <g opacity=".939">
    <path d="M287.363 131.458a10.192 10.192 0 01-10.192 10.192 10.192 10.192 0 01-10.192-10.192 10.192 10.192 0 0110.192-10.192 10.192 10.192 0 0110.192 10.192z" fill="#a2d7b8"/>
    <path d="M267.391 128.786c-.895.076-1.73.163-2.492.259-1.526.192-2.763.419-3.644.68-.44.132-.792.269-1.061.434-.27.165-.51.39-.51.728 0 .337.24.563.51.728.269.165.62.302 1.06.433.882.262 2.12.49 3.645.681 3.052.384 7.247.62 11.882.62 4.634 0 8.83-.236 11.881-.62 1.526-.192 2.763-.419 3.644-.68.441-.132.792-.269 1.061-.434.27-.165.51-.39.51-.728 0-.337-.24-.563-.51-.728-.269-.165-.62-.302-1.06-.433-.882-.262-2.12-.49-3.645-.681a58.865 58.865 0 00-1.575-.173 10.192 10.192 0 01.163.733c.46.046.905.096 1.323.148 1.503.19 2.717.415 3.53.657.407.12.714.248.89.357a.66.66 0 01.153.12.659.659 0 01-.152.12c-.177.109-.484.236-.89.357-.814.242-2.028.468-3.531.657-3.007.378-7.182.613-11.792.613-4.61 0-8.786-.235-11.793-.613-1.503-.19-2.717-.415-3.53-.657-.406-.12-.714-.248-.89-.357a.66.66 0 01-.153-.12.66.66 0 01.153-.12c.176-.109.484-.236.89-.357.813-.242 2.027-.468 3.53-.657a61.09 61.09 0 012.235-.234 10.192 10.192 0 01.17-.733h-.002z" color="#000" overflow="visible" opacity=".42" fill="#ff7f2a"/>
    <path d="M268.307 136.505a62.617 62.617 0 00-1.58 1.945c-.943 1.215-1.657 2.25-2.095 3.059-.219.404-.37.749-.444 1.056-.073.307-.084.637.154.875.239.239.569.228.876.155.307-.074.652-.225 1.056-.444.808-.438 1.844-1.153 3.059-2.096 2.429-1.886 5.562-4.686 8.84-7.964 3.276-3.277 6.076-6.41 7.963-8.839.943-1.214 1.657-2.25 2.095-3.058.219-.404.37-.75.444-1.057.073-.307.084-.637-.154-.875-.239-.238-.569-.228-.876-.154-.307.073-.652.225-1.056.444-.808.438-1.844 1.152-3.058 2.095-.393.305-.81.641-1.236.992a10.192 10.192 0 01.633.402c.359-.293.708-.572 1.04-.83 1.197-.93 2.215-1.628 2.96-2.032.374-.202.681-.329.883-.377a.66.66 0 01.193-.023.655.655 0 01-.023.193c-.049.201-.175.509-.377.882-.404.746-1.103 1.764-2.032 2.96-1.86 2.394-4.645 5.513-7.905 8.773-3.26 3.26-6.379 6.045-8.772 7.904-1.197.93-2.215 1.628-2.96 2.032-.374.202-.681.329-.883.377a.66.66 0 01-.193.024.655.655 0 01.023-.193c.049-.202.176-.51.378-.883.404-.745 1.102-1.763 2.031-2.96.424-.546.901-1.133 1.415-1.746a10.192 10.192 0 01-.397-.639l-.002.002z" color="#000" overflow="visible" opacity=".757" fill="#f95"/>
    <path d="M286.044 136.498a62.617 62.617 0 011.58 1.945c.943 1.214 1.657 2.25 2.095 3.058.219.404.37.75.444 1.056.073.308.084.638-.155.876-.238.238-.568.228-.875.154-.307-.073-.652-.225-1.056-.444-.809-.438-1.844-1.152-3.059-2.095-2.429-1.887-5.562-4.687-8.84-7.964-3.277-3.277-6.076-6.41-7.963-8.84-.943-1.214-1.657-2.25-2.095-3.058-.22-.404-.37-.749-.444-1.056-.074-.307-.084-.637.154-.875.238-.239.568-.228.876-.155.307.074.652.225 1.056.444.808.438 1.844 1.153 3.058 2.096.393.305.81.641 1.236.992a10.192 10.192 0 00-.633.402 56.158 56.158 0 00-1.04-.83c-1.197-.93-2.215-1.628-2.961-2.032-.373-.202-.68-.329-.882-.377a.66.66 0 00-.193-.024.655.655 0 00.023.193c.048.202.175.51.377.883.404.745 1.102 1.763 2.032 2.96 1.859 2.394 4.644 5.512 7.904 8.772 3.26 3.26 6.38 6.046 8.773 7.905 1.197.93 2.215 1.628 2.96 2.032.373.202.68.329.883.377a.66.66 0 00.193.023.655.655 0 00-.024-.193c-.048-.202-.175-.509-.377-.882-.404-.746-1.102-1.764-2.032-2.96a61.09 61.09 0 00-1.415-1.747 10.192 10.192 0 00.398-.638l.002.002z" color="#000" overflow="visible" opacity=".61" fill="#ffb380"/>
    <path d="M286.044 136.498a62.617 62.617 0 011.58 1.945c.943 1.214 1.657 2.25 2.095 3.058.219.404.37.75.444 1.056.073.308.084.638-.155.876-.238.238-.568.228-.875.154-.307-.073-.652-.225-1.056-.444-.809-.438-1.844-1.152-3.059-2.095-2.429-1.887-5.562-4.687-8.84-7.964-3.277-3.277-6.076-6.41-7.963-8.84-.943-1.214-1.657-2.25-2.095-3.058-.22-.404-.37-.749-.444-1.056-.074-.307-.084-.637.154-.875.238-.239.568-.228.876-.155.307.074.652.225 1.056.444.808.438 1.844 1.153 3.058 2.096.393.305.81.641 1.236.992a10.192 10.192 0 00-.633.402 56.158 56.158 0 00-1.04-.83c-1.197-.93-2.215-1.628-2.961-2.032-.373-.202-.68-.329-.882-.377a.66.66 0 00-.193-.024.655.655 0 00.023.193c.048.202.175.51.377.883.404.745 1.102 1.763 2.032 2.96 1.859 2.394 4.644 5.512 7.904 8.772 3.26 3.26 6.38 6.046 8.773 7.905 1.197.93 2.215 1.628 2.96 2.032.373.202.68.329.883.377a.66.66 0 00.193.023.655.655 0 00-.024-.193c-.048-.202-.175-.509-.377-.882-.404-.746-1.102-1.764-2.032-2.96a61.09 61.09 0 00-1.415-1.747 10.192 10.192 0 00.398-.638l.002.002z" color="#000" overflow="visible" opacity=".61" fill="#ffb380"/>
  </g>
  <g>
    <path d="M176.241 81.078l.002.002h-37.745a4.16 4.16 0 00-4.169 4.169v10.63a4.16 4.16 0 004.169 4.168h39.54a4.16 4.16 0 004.17-4.169v-6.744c.142-3.708 4.307-8.056 4.307-8.056z" fill="#483737"/>
    <path d="M175.397 79.953l.002.002h-37.745a4.16 4.16 0 00-4.169 4.169v10.63a4.16 4.16 0 004.17 4.168h39.54a4.16 4.16 0 004.169-4.169V88.01c.142-3.708 4.307-8.056 4.307-8.056z" fill="#dddad5"/>
    <g aria-label="i-am-laffer" fill="#6f6f91">
      <path d="M151.427 88.29h-.826v-.852h.826zm-.007 4.166h-.812v-3.644h.812zM153.732 90.66h-1.72v-.755h1.72zM156.658 92.456h-.79v-.126l-.563.086q-.368.055-.559.055-.451 0-.451-.444v-1.313q0-.451.465-.451h1.115v-.837h-.79v.52h-.747v-.683q0-.45.466-.45h1.396q.458 0 .458.45zm-.783-.657v-.977h-.79v1.006zM161.269 92.456h-.82v-2.955l-.775.015v2.94h-.822v-2.955l-.776.015v2.94h-.826v-3.644h.826v.134l.574-.094q.35-.054.58-.054.285 0 .368.162.303-.047.606-.097.4-.065.614-.065.45 0 .45.444zM163.56 90.66h-1.721v-.755h1.72zM164.97 92.456h-.811V86.81h.811zM167.932 92.456h-.79v-.126l-.563.086q-.368.055-.559.055-.45 0-.45-.444v-1.313q0-.451.465-.451h1.114v-.837h-.79v.52h-.747v-.683q0-.45.466-.45h1.396q.458 0 .458.45zm-.783-.657v-.977h-.79v1.006zM170.126 87.528h-.606v1.284h.526v.704h-.526v2.94h-.82v-2.94h-.375v-.704h.376v-1.551q0-.451.458-.451h.967zM172.03 87.528h-.606v1.284h.527v.704h-.527v2.94h-.818v-2.94h-.376v-.704h.376v-1.551q0-.451.458-.451h.967zM174.69 92.005q0 .451-.466.451h-1.425q-.465 0-.465-.45v-2.743q0-.45.465-.45h1.425q.465 0 .465.45v1.339l-.227.227h-1.338v1.021h.775v-.606h.79zm-.79-1.714v-.873h-.776v.873zM177.586 90.335h-.819V89.5l-.653.015v2.94h-.826v-3.644h.826v.134l.51-.094q.306-.054.511-.054.451 0 .451.444z" />
    </g>
    <path d="M138.529 85.046c-.126 0-.163.07-.263.492-.076.321-.082.392-.069.783.014.345.032.484.096.7.044.148.08.294.08.324 0 .03-.049.102-.11.16a2.53 2.53 0 00-.454.696c-.219.522-.295 1.02-.317 2.07-.015.691-.01.853.034 1.07.16.786.43 1.31.94 1.822.563.564 1.299.925 2.274 1.117.228.045 3.527.046 3.763 0 .56-.112.811-.194 1.261-.414 1.04-.507 1.693-1.331 1.905-2.403.068-.343.092-1.199.048-1.731-.089-1.09-.266-1.638-.692-2.136-.093-.11-.17-.228-.17-.263s.033-.164.074-.285c.104-.307.152-.67.13-.986-.021-.296-.147-.831-.223-.947-.044-.067-.064-.074-.176-.056-.452.073-1.021.48-1.478 1.057-.098.124-.199.233-.225.243-.026.01-.125-.024-.22-.076-.382-.207-.828-.282-1.831-.305-1.223-.03-1.894.048-2.336.267a1.523 1.523 0 01-.293.122c-.027 0-.106-.08-.178-.177-.411-.562-1.21-1.144-1.57-1.144z" fill="#6f6f91"/>
  </g>
</svg>
