<svg xmlns="http://www.w3.org/2000/svg" xmlns:xlink="http://www.w3.org/1999/xlink" width="100%" height="100%" viewBox="0 0 320 180" version="1.0">
  <defs>
    <linearGradient id="f">
      <stop offset="0" stop-color="#fff6d5"/>
      <stop offset="1" stop-color="#fff6d5" stop-opacity="0"/>
    </linearGradient>
    <linearGradient id="e">
      <stop offset="0" stop-color="#ff7f2a"/>
      <stop offset="1" stop-color="#353236" stop-opacity="0"/>
    </linearGradient>
    <linearGradient id="d">
      <stop offset="0" stop-color="#f60"/>
      <stop offset="1" stop-color="#ac93a7" stop-opacity="0"/>
    </linearGradient>
    <linearGradient id="c">
      <stop offset="0" stop-color="#ffe680"/>
      <stop offset="1" stop-color="#ac93a7" stop-opacity="0"/>
    </linearGradient>
    <linearGradient id="b">
      <stop offset="0" stop-color="#1f1c24"/>
      <stop offset="1" stop-color="#1f1c24" stop-opacity="0"/>
    </linearGradient>
    <linearGradient id="a">
      <stop offset="0" stop-color="#483737"/>
      <stop offset="1" stop-color="#483737" stop-opacity="0"/>
    </linearGradient>
    <linearGradient xlink:href="#e" id="g" x1="171.786" y1="114.643" x2="171.786" y2="4.286" gradientUnits="userSpaceOnUse"/>
    <radialGradient xlink:href="#f" id="h" cx="60.357" cy="37.5" fx="60.357" fy="37.5" r="14.286" gradientUnits="userSpaceOnUse" gradientTransform="matrix(1.45 0 0 1.45 -27.16 -16.875)"/>
  </defs>
  <path fill="#2c89a0" d="M0 0h320v180H0z"/>
  <path opacity=".773" fill="url(#g)" d="M0 0h320v180H0z"/>
  <g transform="translate(-181.525 28.086) scale(1.01904)" fill="#353236">
    <path d="M423.11 5.927a.494.509 0 00-.494.51V31.07h-5.198v100.604h-2.681c.114-.44.182-.899.182-1.375V68.627a5.398 5.398 0 00-5.334-5.409c.003-.08.011-.157.011-.237v-.079a5.402 5.402 0 00-5.414-5.412h-5.033a5.4 5.4 0 00-5.413 5.412v.079c0 .081.008.16.012.241a5.396 5.396 0 00-5.258 5.405V130.3c0 .476.066.936.18 1.375h-2.97v-30.962h-4.646v-6.311h-7.01v-5.917h2.98v-7.009l-2.956-2.957a15.033 15.033 0 00.003-.278 15.033 15.033 0 00-15.034-15.034 15.033 15.033 0 00-15.032 15.034 15.033 15.033 0 00.002.255h-.103v.354l-2.626 2.626v7.01h2.626v5.916h-6.659v6.311h-4.241v30.962h-2.338v-42.55h-2.54c-.09-2.916-2.395-5.236-5.25-5.236-2.854 0-5.159 2.32-5.25 5.236h-2.052V77.28a.478.478 0 00-.48-.477.478.478 0 00-.476.477v11.846h-3.952v42.55h-3.124V65h-6.885V53.104h-4.219V39.427a.478.478 0 00-.477-.475.478.478 0 00-.479.475v13.677h-2.798V25.36a.649.649 0 00-.648-.648.649.649 0 00-.65.648v27.745h-7.183v11.897h-6.141v66.674h-2.883c.115-.44.18-.899.18-1.375V82.237a5.4 5.4 0 00-5.412-5.412h-24.5a5.402 5.402 0 00-5.415 5.412V130.3c0 .476.068.935.182 1.375h-2.581V69.643h-3.425v-6.666c0-.02.005-.038.005-.058v-4.701c0-.02-.005-.038-.005-.058v-.207h-.022a2.553 2.553 0 00-2.541-2.303h-4.682a2.553 2.553 0 00-2.542 2.303h-.027v11.69h-1.751v-7.345h-12.968v7.345h-3.828v62.032h-2.7V62.73h-5.242v-8.987h-19.276v8.987h-.496v86.541h314.02V60.667h-1.577v-.63a5.4 5.4 0 00-5.413-5.413h-7.224a5.4 5.4 0 00-5.412 5.413v.63h-2.873v71.008h-2.87V69.999h-2.621v-4.511a.501.501 0 00-.503-.5.501.501 0 00-.502.5v2.156h-2.923v-2.156a.501.501 0 00-.5-.5.501.501 0 00-.502.5v2.156h-2.923v-2.156a.501.501 0 00-.502-.5.501.501 0 00-.5.5v2.156h-2.923v-2.156a.501.501 0 00-.5-.5.501.501 0 00-.502.5v2.156h-2.921v-2.156a.501.501 0 00-.503-.5.501.501 0 00-.502.5v4.511h-1.744v61.676h-2.938V31.07h-5.296V24.66h-10.164v6.41h-3.71V6.437a.494.509 0 00-.495-.51zm25.352 62.72h2.92v1.352h-2.92v-1.353zm3.923 0h2.923v1.352h-2.923v-1.353zm3.925 0h2.923v1.352h-2.923v-1.353zm3.925 0h2.923v1.352h-2.923v-1.353z"/>
    <path d="M423.11 36.575V6.435M295.96 55.801V39.43M315.096 93.652V77.279M447.959 71.622v-6.133M451.884 71.622v-6.133M455.81 71.622v-6.133M459.735 71.622v-6.133M463.66 71.622v-6.133M448.008 68.146h15.488" color="#000" overflow="visible"/>
    <rect width="25.234" height="10.514" x="244.722" y="71.272" ry="4.206"/>
  </g>
  <circle cx="60.357" cy="37.5" r="20.714" opacity=".277" fill="url(#h)"/>
  <path d="M62.075 26.133a10.296 10.296 0 00-10.29 10.296 10.296 10.296 0 0010.296 10.295 10.296 10.296 0 009.337-5.958 8.198 8.198 0 01-6.096 2.718 8.198 8.198 0 01-8.198-8.199 8.198 8.198 0 018.198-8.199 8.198 8.198 0 011.304.105 10.296 10.296 0 00-4.545-1.058 10.296 10.296 0 00-.006 0z" fill="#fff6d5" fill-opacity=".555"/>
  <path d="M122.797 32.287a.115.115 0 00-.115.115v.656l-.464-.464a.115.115 0 00-.089-.033.115.115 0 00-.073.033.115.115 0 000 .163l.463.463h-.655a.115.115 0 00-.115.115.115.115 0 00.115.115h.655l-.463.463a.115.115 0 000 .163.115.115 0 00.162 0l.464-.464v.656a.115.115 0 00.115.115.115.115 0 00.115-.115v-.656l.463.464a.115.115 0 00.163 0 .115.115 0 000-.163l-.463-.463h.655a.115.115 0 00.115-.115.115.115 0 00-.115-.115h-.655l.463-.463a.115.115 0 000-.163.115.115 0 00-.09-.033.115.115 0 00-.073.033l-.463.464v-.656a.115.115 0 00-.115-.115zM162.797 52.287a.115.115 0 00-.115.115v.656l-.464-.464a.115.115 0 00-.089-.033.115.115 0 00-.073.033.115.115 0 000 .163l.463.463h-.655a.115.115 0 00-.115.115.115.115 0 00.115.115h.655l-.463.463a.115.115 0 000 .163.115.115 0 00.162 0l.464-.464v.656a.115.115 0 00.115.115.115.115 0 00.115-.115v-.656l.463.464a.115.115 0 00.163 0 .115.115 0 000-.163l-.463-.463h.655a.115.115 0 00.115-.115.115.115 0 00-.115-.115h-.655l.463-.463a.115.115 0 000-.163.115.115 0 00-.09-.033.115.115 0 00-.073.033l-.463.464v-.656a.115.115 0 00-.115-.115zM202.797 12.287a.115.115 0 00-.115.115v.656l-.464-.464a.115.115 0 00-.089-.033.115.115 0 00-.073.033.115.115 0 000 .163l.463.463h-.655a.115.115 0 00-.115.115.115.115 0 00.115.115h.655l-.463.463a.115.115 0 000 .163.115.115 0 00.162 0l.464-.464v.656a.115.115 0 00.115.115.115.115 0 00.115-.115v-.656l.463.464a.115.115 0 00.163 0 .115.115 0 000-.163l-.463-.463h.655a.115.115 0 00.115-.115.115.115 0 00-.115-.115h-.655l.463-.463a.115.115 0 000-.163.115.115 0 00-.09-.033.115.115 0 00-.073.033l-.463.464v-.656a.115.115 0 00-.115-.115zM222.797 32.287a.115.115 0 00-.115.115v.656l-.464-.464a.115.115 0 00-.089-.033.115.115 0 00-.073.033.115.115 0 000 .163l.463.463h-.655a.115.115 0 00-.115.115.115.115 0 00.115.115h.655l-.463.463a.115.115 0 000 .163.115.115 0 00.162 0l.464-.464v.656a.115.115 0 00.115.115.115.115 0 00.115-.115v-.656l.463.464a.115.115 0 00.163 0 .115.115 0 000-.163l-.463-.463h.655a.115.115 0 00.115-.115.115.115 0 00-.115-.115h-.655l.463-.463a.115.115 0 000-.163.115.115 0 00-.09-.033.115.115 0 00-.073.033l-.463.464v-.656a.115.115 0 00-.115-.115zM282.797 52.287a.115.115 0 00-.115.115v.656l-.464-.464a.115.115 0 00-.089-.033.115.115 0 00-.073.033.115.115 0 000 .163l.463.463h-.655a.115.115 0 00-.115.115.115.115 0 00.115.115h.655l-.463.463a.115.115 0 000 .163.115.115 0 00.162 0l.464-.464v.656a.115.115 0 00.115.115.115.115 0 00.115-.115v-.656l.463.464a.115.115 0 00.163 0 .115.115 0 000-.163l-.463-.463h.655a.115.115 0 00.115-.115.115.115 0 00-.115-.115h-.655l.463-.463a.115.115 0 000-.163.115.115 0 00-.09-.033.115.115 0 00-.073.033l-.463.464v-.656a.115.115 0 00-.115-.115zM302.797 12.287a.115.115 0 00-.115.115v.656l-.464-.464a.115.115 0 00-.089-.033.115.115 0 00-.073.033.115.115 0 000 .163l.463.463h-.655a.115.115 0 00-.115.115.115.115 0 00.115.115h.655l-.463.463a.115.115 0 000 .163.115.115 0 00.162 0l.464-.464v.656a.115.115 0 00.115.115.115.115 0 00.115-.115v-.656l.463.464a.115.115 0 00.163 0 .115.115 0 000-.163l-.463-.463h.655a.115.115 0 00.115-.115.115.115 0 00-.115-.115h-.655l.463-.463a.115.115 0 000-.163.115.115 0 00-.09-.033.115.115 0 00-.073.033l-.463.464v-.656a.115.115 0 00-.115-.115zM22.797 12.287a.115.115 0 00-.115.115v.656l-.464-.464a.115.115 0 00-.089-.033.115.115 0 00-.073.033.115.115 0 000 .163l.463.463h-.655a.115.115 0 00-.115.115.115.115 0 00.115.115h.655l-.463.463a.115.115 0 000 .163.115.115 0 00.162 0l.464-.464v.656a.115.115 0 00.115.115.115.115 0 00.115-.115v-.656l.463.464a.115.115 0 00.163 0 .115.115 0 000-.163l-.463-.463h.655a.115.115 0 00.115-.115.115.115 0 00-.115-.115h-.655l.463-.463a.115.115 0 000-.163.115.115 0 00-.09-.033.115.115 0 00-.073.033l-.463.464v-.656a.115.115 0 00-.115-.115zM82.797 72.287a.115.115 0 00-.115.115v.656l-.464-.464a.115.115 0 00-.089-.033.115.115 0 00-.073.033.115.115 0 000 .163l.463.463h-.655a.115.115 0 00-.115.115.115.115 0 00.115.115h.655l-.463.463a.115.115 0 000 .163.115.115 0 00.162 0l.464-.464v.656a.115.115 0 00.115.115.115.115 0 00.115-.115v-.656l.463.464a.115.115 0 00.163 0 .115.115 0 000-.163l-.463-.463h.655a.115.115 0 00.115-.115.115.115 0 00-.115-.115h-.655l.463-.463a.115.115 0 000-.163.115.115 0 00-.09-.033.115.115 0 00-.073.033l-.463.464v-.656a.115.115 0 00-.115-.115zM22.797 52.287a.115.115 0 00-.115.115v.656l-.464-.464a.115.115 0 00-.089-.033.115.115 0 00-.073.033.115.115 0 000 .163l.463.463h-.655a.115.115 0 00-.115.115.115.115 0 00.115.115h.655l-.463.463a.115.115 0 000 .163.115.115 0 00.162 0l.464-.464v.656a.115.115 0 00.115.115.115.115 0 00.115-.115v-.656l.463.464a.115.115 0 00.163 0 .115.115 0 000-.163l-.463-.463h.655a.115.115 0 00.115-.115.115.115 0 00-.115-.115h-.655l.463-.463a.115.115 0 000-.163.115.115 0 00-.09-.033.115.115 0 00-.073.033l-.463.464v-.656a.115.115 0 00-.115-.115zM206.797 52.287a.115.115 0 00-.115.115v.656l-.464-.464a.115.115 0 00-.089-.033.115.115 0 00-.073.033.115.115 0 000 .163l.463.463h-.655a.115.115 0 00-.115.115.115.115 0 00.115.115h.655l-.463.463a.115.115 0 000 .163.115.115 0 00.162 0l.464-.464v.656a.115.115 0 00.115.115.115.115 0 00.115-.115v-.656l.463.464a.115.115 0 00.163 0 .115.115 0 000-.163l-.463-.463h.655a.115.115 0 00.115-.115.115.115 0 00-.115-.115h-.655l.463-.463a.115.115 0 000-.163.115.115 0 00-.09-.033.115.115 0 00-.073.033l-.463.464v-.656a.115.115 0 00-.115-.115zM100.797 12.287a.115.115 0 00-.115.115v.656l-.464-.464a.115.115 0 00-.089-.033.115.115 0 00-.073.033.115.115 0 000 .163l.463.463h-.655a.115.115 0 00-.115.115.115.115 0 00.115.115h.655l-.463.463a.115.115 0 000 .163.115.115 0 00.162 0l.464-.464v.656a.115.115 0 00.115.115.115.115 0 00.115-.115v-.656l.463.464a.115.115 0 00.163 0 .115.115 0 000-.163l-.463-.463h.655a.115.115 0 00.115-.115.115.115 0 00-.115-.115h-.655l.463-.463a.115.115 0 000-.163.115.115 0 00-.09-.033.115.115 0 00-.073.033l-.463.464v-.656a.115.115 0 00-.115-.115z" color="#000" overflow="visible" opacity=".277" fill="#fff6d5"/>
  <g>
    <path d="M176.241 81.078l.002.002h-37.745a4.16 4.16 0 00-4.169 4.169v10.63a4.16 4.16 0 004.169 4.168h39.54a4.16 4.16 0 004.17-4.169v-6.744c.142-3.708 4.307-8.056 4.307-8.056z" fill="#483737"/>
    <path d="M175.397 79.953l.002.002h-37.745a4.16 4.16 0 00-4.169 4.169v10.63a4.16 4.16 0 004.17 4.168h39.54a4.16 4.16 0 004.169-4.169V88.01c.142-3.708 4.307-8.056 4.307-8.056z" fill="#dddad5"/>
    <g aria-label="i-am-laffer" fill="#6f6f91">
      <path d="M151.427 88.29h-.826v-.852h.826zm-.007 4.166h-.812v-3.644h.812zM153.732 90.66h-1.72v-.755h1.72zM156.658 92.456h-.79v-.126l-.563.086q-.368.055-.559.055-.451 0-.451-.444v-1.313q0-.451.465-.451h1.115v-.837h-.79v.52h-.747v-.683q0-.45.466-.45h1.396q.458 0 .458.45zm-.783-.657v-.977h-.79v1.006zM161.269 92.456h-.82v-2.955l-.775.015v2.94h-.822v-2.955l-.776.015v2.94h-.826v-3.644h.826v.134l.574-.094q.35-.054.58-.054.285 0 .368.162.303-.047.606-.097.4-.065.614-.065.45 0 .45.444zM163.56 90.66h-1.721v-.755h1.72zM164.97 92.456h-.811V86.81h.811zM167.932 92.456h-.79v-.126l-.563.086q-.368.055-.559.055-.45 0-.45-.444v-1.313q0-.451.465-.451h1.114v-.837h-.79v.52h-.747v-.683q0-.45.466-.45h1.396q.458 0 .458.45zm-.783-.657v-.977h-.79v1.006zM170.126 87.528h-.606v1.284h.526v.704h-.526v2.94h-.82v-2.94h-.375v-.704h.376v-1.551q0-.451.458-.451h.967zM172.03 87.528h-.606v1.284h.527v.704h-.527v2.94h-.818v-2.94h-.376v-.704h.376v-1.551q0-.451.458-.451h.967zM174.69 92.005q0 .451-.466.451h-1.425q-.465 0-.465-.45v-2.743q0-.45.465-.45h1.425q.465 0 .465.45v1.339l-.227.227h-1.338v1.021h.775v-.606h.79zm-.79-1.714v-.873h-.776v.873zM177.586 90.335h-.819V89.5l-.653.015v2.94h-.826v-3.644h.826v.134l.51-.094q.306-.054.511-.054.451 0 .451.444z"/>
    </g>
    <path d="M138.529 85.046c-.126 0-.163.07-.263.492-.076.321-.082.392-.069.783.014.345.032.484.096.7.044.148.08.294.08.324 0 .03-.049.102-.11.16a2.53 2.53 0 00-.454.696c-.219.522-.295 1.02-.317 2.07-.015.691-.01.853.034 1.07.16.786.43 1.31.94 1.822.563.564 1.299.925 2.274 1.117.228.045 3.527.046 3.763 0 .56-.112.811-.194 1.261-.414 1.04-.507 1.693-1.331 1.905-2.403.068-.343.092-1.199.048-1.731-.089-1.09-.266-1.638-.692-2.136-.093-.11-.17-.228-.17-.263s.033-.164.074-.285c.104-.307.152-.67.13-.986-.021-.296-.147-.831-.223-.947-.044-.067-.064-.074-.176-.056-.452.073-1.021.48-1.478 1.057-.098.124-.199.233-.225.243-.026.01-.125-.024-.22-.076-.382-.207-.828-.282-1.831-.305-1.223-.03-1.894.048-2.336.267a1.523 1.523 0 01-.293.122c-.027 0-.106-.08-.178-.177-.411-.562-1.21-1.144-1.57-1.144z" fill="#6f6f91"/>
  </g>
</svg>
