<svg xmlns="http://www.w3.org/2000/svg" xmlns:xlink="http://www.w3.org/1999/xlink" width="100%" height="100%" viewBox="0 0 320 180" version="1.0">
  <defs>
    <linearGradient id="f">
      <stop offset="0" stop-color="#241f1c"/>
      <stop offset="1" stop-color="#241f1c" stop-opacity="0"/>
    </linearGradient>
    <linearGradient id="e">
      <stop offset="0" stop-color="#fff6d5" stop-opacity=".27"/>
      <stop offset=".332" stop-color="#fff6d5" stop-opacity=".156"/>
      <stop offset="1" stop-color="#fff6d5" stop-opacity="0"/>
    </linearGradient>
    <linearGradient id="d">
      <stop offset="0" stop-color="#483737"/>
      <stop offset="1" stop-color="#483737" stop-opacity="0"/>
    </linearGradient>
    <linearGradient id="c">
      <stop offset="0" stop-color="#241f1c"/>
      <stop offset="1" stop-color="#241f1c" stop-opacity="0"/>
    </linearGradient>
    <linearGradient id="a">
      <stop offset="0" stop-color="#483737"/>
      <stop offset="1" stop-color="#7c6f91"/>
    </linearGradient>
    <linearGradient id="b">
      <stop offset="0" stop-color="#483737"/>
      <stop offset="1" stop-color="#6c5353"/>
    </linearGradient>
    <linearGradient xlink:href="#a" id="g" x1="138.929" y1="152.857" x2="138.929" y2="-34.286" gradientUnits="userSpaceOnUse"/>
    <linearGradient xlink:href="#b" id="j" gradientUnits="userSpaceOnUse" x1="138.929" y1="152.857" x2="138.929" y2="-34.286" gradientTransform="matrix(1 0 0 .23413 0 -180)"/>
    <linearGradient xlink:href="#c" id="i" x1="58.214" y1="97.5" x2="58.214" y2="130.714" gradientUnits="userSpaceOnUse"/>
    <linearGradient xlink:href="#f" id="k" x1="161.786" y1="180" x2="161.786" y2="70" gradientUnits="userSpaceOnUse"/>
    <radialGradient xlink:href="#e" id="h" cx="199.045" cy="17.803" fx="199.045" fy="17.803" r="160" gradientTransform="matrix(.45313 0 0 .423 82.031 39.051)" gradientUnits="userSpaceOnUse"/>
  </defs>
  <path fill="url(#g)" d="M0 0h320v180H0z"/>
  <circle cx="172.107" cy="44.107" r="19.107" fill="#fff6d5"/>
  <path fill="url(#h)" d="M0 0h320v135.357H0z"/>
  <path d="M177.143 135.714l-24.915-13.171-29.728-5.4-8.214-13.214-27.5-4.286-27.5-11.429-21.072 12.5-24.643-15L0 66.43v68.928z" opacity=".27" fill="url(#i)"/>
  <g color="#000" fill="#7c916f">
    <path d="M36.394 93.409a2.265 2.265 0 00-2.266 2.264c0 6.801-.289 13.522 1.868 17.987a7.948 7.948 0 004.885 4.16c1.887.559 3.72.52 5.361.52a2.265 2.265 0 002.264-2.266 2.265 2.265 0 00-2.264-2.266c-1.64 0-3.09-.04-4.076-.33-.986-.293-1.527-.622-2.09-1.79-1.128-2.334-1.418-9.214-1.418-16.015a2.265 2.265 0 00-2.264-2.264z" overflow="visible" opacity=".635"/>
    <path d="M46.946 101.85a2.265 2.265 0 00-2.266 2.265v33.062a2.265 2.265 0 002.266 2.266 2.265 2.265 0 002.264-2.266v-33.062a2.265 2.265 0 00-2.264-2.266z" overflow="visible"/>
    <path d="M55.035 109.588a2.265 2.265 0 00-2.264 2.266c0 4.221-.37 8.408-.958 9.371-.294.481-.568.645-1.324.821-.756.177-1.902.204-3.193.204a2.265 2.265 0 00-2.264 2.266 2.265 2.265 0 002.264 2.264c1.29 0 2.723.028 4.224-.323 1.501-.35 3.164-1.241 4.16-2.87 1.989-3.257 1.62-7.512 1.62-11.733a2.265 2.265 0 00-2.265-2.266z" overflow="visible" opacity=".59"/>
  </g>
  <path d="M182.838 132.33l23.233-16.162 26.264 4.545 11.617-22.223 31.82 1.01 18.182-3.536 7.071-16.667L320 60.104v75.253H177.282z" fill="#4d3d43"/>
  <path d="M135.723 127.062c1.406 0 2.813 0 3.517-.86.704-.861.704-2.584.704-4.307M135.286 131.72c-1.067 0-2.135 0-2.668-.655-.533-.655-.533-1.965-.533-3.275" opacity=".649" fill="none" stroke="#7c916f" stroke-width="1.8569030400000002" stroke-linecap="round" stroke-miterlimit="4.514"/>
  <path d="M135.432 118.916a1.015 1.015 0 011.014 1.015v18.957h-2.03V119.93a1.015 1.015 0 011.016-1.015z" color="#000" overflow="visible" fill="#7c916f"/>
  <path transform="scale(1 -1)" fill="url(#j)" d="M0-180h320v42.143H0z"/>
  <path opacity=".565" fill="url(#k)" d="M0 148.214h320V180H0z"/>
  <path d="M0 166.857h320" opacity=".054" fill="#241f1c" stroke="#e3dedb" stroke-width="1.5" stroke-linejoin="round" stroke-miterlimit="4.514" stroke-dasharray="12,6"/>
  <g>
    <path d="M176.241 81.078l.002.002h-37.745a4.16 4.16 0 00-4.169 4.169v10.63a4.16 4.16 0 004.169 4.168h39.54a4.16 4.16 0 004.17-4.169v-6.744c.142-3.708 4.307-8.056 4.307-8.056z" fill="#483737"/>
    <path d="M175.397 79.953l.002.002h-37.745a4.16 4.16 0 00-4.169 4.169v10.63a4.16 4.16 0 004.17 4.168h39.54a4.16 4.16 0 004.169-4.169V88.01c.142-3.708 4.307-8.056 4.307-8.056z" fill="#dddad5"/>
    <g aria-label="i-am-laffer" fill="#6f6f91">
      <path d="M151.427 88.29h-.826v-.852h.826zm-.007 4.166h-.812v-3.644h.812zM153.732 90.66h-1.72v-.755h1.72zM156.658 92.456h-.79v-.126l-.563.086q-.368.055-.559.055-.451 0-.451-.444v-1.313q0-.451.465-.451h1.115v-.837h-.79v.52h-.747v-.683q0-.45.466-.45h1.396q.458 0 .458.45zm-.783-.657v-.977h-.79v1.006zM161.269 92.456h-.82v-2.955l-.775.015v2.94h-.822v-2.955l-.776.015v2.94h-.826v-3.644h.826v.134l.574-.094q.35-.054.58-.054.285 0 .368.162.303-.047.606-.097.4-.065.614-.065.45 0 .45.444zM163.56 90.66h-1.721v-.755h1.72zM164.97 92.456h-.811V86.81h.811zM167.932 92.456h-.79v-.126l-.563.086q-.368.055-.559.055-.45 0-.45-.444v-1.313q0-.451.465-.451h1.114v-.837h-.79v.52h-.747v-.683q0-.45.466-.45h1.396q.458 0 .458.45zm-.783-.657v-.977h-.79v1.006zM170.126 87.528h-.606v1.284h.526v.704h-.526v2.94h-.82v-2.94h-.375v-.704h.376v-1.551q0-.451.458-.451h.967zM172.03 87.528h-.606v1.284h.527v.704h-.527v2.94h-.818v-2.94h-.376v-.704h.376v-1.551q0-.451.458-.451h.967zM174.69 92.005q0 .451-.466.451h-1.425q-.465 0-.465-.45v-2.743q0-.45.465-.45h1.425q.465 0 .465.45v1.339l-.227.227h-1.338v1.021h.775v-.606h.79zm-.79-1.714v-.873h-.776v.873zM177.586 90.335h-.819V89.5l-.653.015v2.94h-.826v-3.644h.826v.134l.51-.094q.306-.054.511-.054.451 0 .451.444z" />
    </g>
    <path d="M138.529 85.046c-.126 0-.163.07-.263.492-.076.321-.082.392-.069.783.014.345.032.484.096.7.044.148.08.294.08.324 0 .03-.049.102-.11.16a2.53 2.53 0 00-.454.696c-.219.522-.295 1.02-.317 2.07-.015.691-.01.853.034 1.07.16.786.43 1.31.94 1.822.563.564 1.299.925 2.274 1.117.228.045 3.527.046 3.763 0 .56-.112.811-.194 1.261-.414 1.04-.507 1.693-1.331 1.905-2.403.068-.343.092-1.199.048-1.731-.089-1.09-.266-1.638-.692-2.136-.093-.11-.17-.228-.17-.263s.033-.164.074-.285c.104-.307.152-.67.13-.986-.021-.296-.147-.831-.223-.947-.044-.067-.064-.074-.176-.056-.452.073-1.021.48-1.478 1.057-.098.124-.199.233-.225.243-.026.01-.125-.024-.22-.076-.382-.207-.828-.282-1.831-.305-1.223-.03-1.894.048-2.336.267a1.523 1.523 0 01-.293.122c-.027 0-.106-.08-.178-.177-.411-.562-1.21-1.144-1.57-1.144z" fill="#6f6f91"/>
  </g>
</svg>
