<svg xmlns="http://www.w3.org/2000/svg" xmlns:xlink="http://www.w3.org/1999/xlink" width="100%" height="100%" viewBox="0 0 320 180" version="1.0">
  <defs>
    <linearGradient id="d">
      <stop offset="0" stop-color="#d38d5f"/>
      <stop offset="1" stop-color="#7c6f91"/>
    </linearGradient>
    <linearGradient id="c">
      <stop offset="0" stop-color="#83907b"/>
      <stop offset="1" stop-color="#9dac93" stop-opacity="0"/>
    </linearGradient>
    <linearGradient id="b">
      <stop offset="0" stop-color="#8a916f"/>
      <stop offset="1" stop-color="#8a916f" stop-opacity="0"/>
    </linearGradient>
    <linearGradient id="a">
      <stop offset="0" stop-color="#483737"/>
      <stop offset="1" stop-color="#483737" stop-opacity="0"/>
    </linearGradient>
    <linearGradient xlink:href="#c" id="g" x1="162.143" y1="184.643" x2="162.5" y2="124.286" gradientUnits="userSpaceOnUse" gradientTransform="matrix(1 0 0 1.0203 0 -2.537)"/>
    <linearGradient xlink:href="#d" id="f" x1="193.795" y1="126.596" x2="194.286" y2="0" gradientUnits="userSpaceOnUse"/>
    <linearGradient xlink:href="#e" id="h" x1="159.286" y1="73.929" x2="158.929" y2="198.571" gradientUnits="userSpaceOnUse"/>
    <linearGradient id="e">
      <stop offset="0" stop-color="#8787de"/>
      <stop offset="1" stop-color="#fea"/>
    </linearGradient>
  </defs>
  <g style="mix-blend-mode:normal">
    <path fill="url(#f)" d="M0 0h320v180H0z"/>
    <path d="M235 52.143l-20.358 17.5L182.5 52.858l-29.525 22.5-26.717 12-54.83-29.142L0 95.357v85.76h321.285L320 56.977 308.572 55l-10.715 10.715-33.072 7.642z" fill="#ac9d93"/>
    <path d="M308.572 55l-10.715 10.715 7.5-1.072 2.858 3.572L320 64.643v1.43-9.095z" fill="#fff"/>
    <path fill="#c4c8b7" d="M0 95.357h320V180H0z"/>
    <path d="M24.786 105.286V86.714" fill="#d7eef4" stroke="#483e37" stroke-width="3.127" stroke-linecap="round"/>
    <path d="M10.938 95.167H38.99l-14.264-10.33z" fill="#3e4837"/>
    <path d="M12.067 91.357h25.795l-13.116-10z" fill="#3e4837"/>
    <path d="M13.671 87.357h22.587l-11.485-10z" fill="#3e4837"/>
    <path d="M14.429 83.357H35.5l-10.714-10z" fill="#3e4837"/>
    <path d="M15.684 79.357h18.56l-9.437-10z" fill="#3e4837"/>
    <path d="M16.954 75.357h16.02l-8.145-7.232z" fill="#3e4837"/>
    <path d="M54.786 105.286V86.714" fill="#d7eef4" stroke="#483e37" stroke-width="3.127" stroke-linecap="round"/>
    <path d="M40.938 95.167H68.99l-14.264-10.33z" fill="#3e4837"/>
    <path d="M42.067 91.357h25.795l-13.116-10z" fill="#3e4837"/>
    <path d="M43.671 87.357h22.587l-11.485-10z" fill="#3e4837"/>
    <path d="M44.429 83.357H65.5l-10.714-10z" fill="#3e4837"/>
    <path d="M45.684 79.357h18.56l-9.437-10z" fill="#3e4837"/>
    <path d="M46.954 75.357h16.02l-8.145-7.232z" fill="#3e4837"/>
    <path d="M84.786 105.286V86.714" fill="#d7eef4" stroke="#483e37" stroke-width="3.127" stroke-linecap="round"/>
    <path d="M70.938 95.167H98.99l-14.264-10.33z" fill="#3e4837"/>
    <path d="M72.067 91.357h25.795l-13.116-10z" fill="#3e4837"/>
    <path d="M73.671 87.357h22.587l-11.485-10z" fill="#3e4837"/>
    <path d="M74.429 83.357H95.5l-10.714-10z" fill="#3e4837"/>
    <path d="M75.684 79.357h18.56l-9.437-10z" fill="#3e4837"/>
    <path d="M76.954 75.357h16.02l-8.145-7.232z" fill="#3e4837"/>
    <g>
      <path d="M114.786 105.286V86.714" fill="#d7eef4" stroke="#483e37" stroke-width="3.127" stroke-linecap="round"/>
      <path d="M100.938 95.167h28.053l-14.264-10.33z" fill="#3e4837"/>
      <path d="M102.067 91.357h25.795l-13.116-10z" fill="#3e4837"/>
      <path d="M103.671 87.357h22.587l-11.485-10z" fill="#3e4837"/>
      <path d="M104.429 83.357H125.5l-10.714-10z" fill="#3e4837"/>
      <path d="M105.684 79.357h18.56l-9.437-10z" fill="#3e4837"/>
      <path d="M106.954 75.357h16.02l-8.145-7.232z" fill="#3e4837"/>
    </g>
    <g>
      <path d="M144.786 105.286V86.714" fill="#d7eef4" stroke="#483e37" stroke-width="3.127" stroke-linecap="round"/>
      <path d="M130.938 95.167h28.053l-14.264-10.33z" fill="#3e4837"/>
      <path d="M132.067 91.357h25.795l-13.116-10z" fill="#3e4837"/>
      <path d="M133.671 87.357h22.587l-11.485-10z" fill="#3e4837"/>
      <path d="M134.429 83.357H155.5l-10.714-10z" fill="#3e4837"/>
      <path d="M135.684 79.357h18.56l-9.437-10z" fill="#3e4837"/>
      <path d="M136.954 75.357h16.02l-8.145-7.232z" fill="#3e4837"/>
    </g>
    <g>
      <path d="M174.786 105.286V86.714" fill="#d7eef4" stroke="#483e37" stroke-width="3.127" stroke-linecap="round"/>
      <path d="M160.938 95.167h28.053l-14.264-10.33z" fill="#3e4837"/>
      <path d="M162.067 91.357h25.795l-13.116-10z" fill="#3e4837"/>
      <path d="M163.671 87.357h22.587l-11.485-10z" fill="#3e4837"/>
      <path d="M164.429 83.357H185.5l-10.714-10z" fill="#3e4837"/>
      <path d="M165.684 79.357h18.56l-9.437-10z" fill="#3e4837"/>
      <path d="M166.954 75.357h16.02l-8.145-7.232z" fill="#3e4837"/>
    </g>
    <g>
      <path d="M204.786 105.286V86.714" fill="#d7eef4" stroke="#483e37" stroke-width="3.127" stroke-linecap="round"/>
      <path d="M190.938 95.167h28.053l-14.264-10.33z" fill="#3e4837"/>
      <path d="M192.067 91.357h25.795l-13.116-10z" fill="#3e4837"/>
      <path d="M193.671 87.357h22.587l-11.485-10z" fill="#3e4837"/>
      <path d="M194.429 83.357H215.5l-10.714-10z" fill="#3e4837"/>
      <path d="M195.684 79.357h18.56l-9.437-10z" fill="#3e4837"/>
      <path d="M196.954 75.357h16.02l-8.145-7.232z" fill="#3e4837"/>
    </g>
    <g>
      <path d="M234.786 105.286V86.714" fill="#d7eef4" stroke="#483e37" stroke-width="3.127" stroke-linecap="round"/>
      <path d="M220.938 95.167h28.053l-14.264-10.33z" fill="#3e4837"/>
      <path d="M222.067 91.357h25.795l-13.116-10z" fill="#3e4837"/>
      <path d="M223.671 87.357h22.587l-11.485-10z" fill="#3e4837"/>
      <path d="M224.429 83.357H245.5l-10.714-10z" fill="#3e4837"/>
      <path d="M225.684 79.357h18.56l-9.437-10z" fill="#3e4837"/>
      <path d="M226.954 75.357h16.02l-8.145-7.232z" fill="#3e4837"/>
    </g>
    <g>
      <path d="M264.786 105.286V86.714" fill="#d7eef4" stroke="#483e37" stroke-width="3.127" stroke-linecap="round"/>
      <path d="M250.938 95.167h28.053l-14.264-10.33z" fill="#3e4837"/>
      <path d="M252.067 91.357h25.795l-13.116-10z" fill="#3e4837"/>
      <path d="M253.671 87.357h22.587l-11.485-10z" fill="#3e4837"/>
      <path d="M254.429 83.357H275.5l-10.714-10z" fill="#3e4837"/>
      <path d="M255.684 79.357h18.56l-9.437-10z" fill="#3e4837"/>
      <path d="M256.954 75.357h16.02l-8.145-7.232z" fill="#3e4837"/>
    </g>
    <g>
      <path d="M294.786 105.286V86.714" fill="#d7eef4" stroke="#483e37" stroke-width="3.127" stroke-linecap="round"/>
      <path d="M280.938 95.167h28.053l-14.264-10.33z" fill="#3e4837"/>
      <path d="M282.067 91.357h25.795l-13.116-10z" fill="#3e4837"/>
      <path d="M283.671 87.357h22.587l-11.485-10z" fill="#3e4837"/>
      <path d="M284.429 83.357H305.5l-10.714-10z" fill="#3e4837"/>
      <path d="M285.684 79.357h18.56l-9.437-10z" fill="#3e4837"/>
      <path d="M286.954 75.357h16.02l-8.145-7.232z" fill="#3e4837"/>
    </g>
    <g>
      <path d="M280.786 117.286V98.714" fill="#d7eef4" stroke="#6c5d53" stroke-width="3.127" stroke-linecap="round"/>
      <path d="M266.938 107.167h28.053l-14.264-10.33z" fill="#676c53"/>
      <path d="M268.067 103.357h25.795l-13.116-10z" fill="#676c53"/>
      <path d="M269.671 99.357h22.587l-11.485-10z" fill="#676c53"/>
      <path d="M270.429 95.357H291.5l-10.714-10z" fill="#676c53"/>
      <path d="M271.684 91.357h18.56l-9.437-10z" fill="#676c53"/>
      <path d="M272.954 87.357h16.02l-8.145-7.232z" fill="#676c53"/>
      <path d="M250.786 117.286V98.714" fill="#d7eef4" stroke="#6c5d53" stroke-width="3.127" stroke-linecap="round"/>
      <path d="M236.938 107.167h28.053l-14.264-10.33z" fill="#676c53"/>
      <path d="M238.067 103.357h25.795l-13.116-10z" fill="#676c53"/>
      <path d="M239.671 99.357h22.587l-11.485-10z" fill="#676c53"/>
      <path d="M240.429 95.357H261.5l-10.714-10z" fill="#676c53"/>
      <path d="M241.684 91.357h18.56l-9.437-10z" fill="#676c53"/>
      <path d="M242.954 87.357h16.02l-8.145-7.232z" fill="#676c53"/>
      <g>
        <path d="M220.786 117.286V98.714" fill="#d7eef4" stroke="#6c5d53" stroke-width="3.127" stroke-linecap="round"/>
        <path d="M206.938 107.167h28.053l-14.264-10.33z" fill="#676c53"/>
        <path d="M208.067 103.357h25.795l-13.116-10z" fill="#676c53"/>
        <path d="M209.671 99.357h22.587l-11.485-10z" fill="#676c53"/>
        <path d="M210.429 95.357H231.5l-10.714-10z" fill="#676c53"/>
        <path d="M211.684 91.357h18.56l-9.437-10z" fill="#676c53"/>
        <path d="M212.954 87.357h16.02l-8.145-7.232z" fill="#676c53"/>
      </g>
      <g>
        <path d="M190.786 117.286V98.714" fill="#d7eef4" stroke="#6c5d53" stroke-width="3.127" stroke-linecap="round"/>
        <path d="M176.938 107.167h28.053l-14.264-10.33z" fill="#676c53"/>
        <path d="M178.067 103.357h25.795l-13.116-10z" fill="#676c53"/>
        <path d="M179.671 99.357h22.587l-11.485-10z" fill="#676c53"/>
        <path d="M180.429 95.357H201.5l-10.714-10z" fill="#676c53"/>
        <path d="M181.684 91.357h18.56l-9.437-10z" fill="#676c53"/>
        <path d="M182.954 87.357h16.02l-8.145-7.232z" fill="#676c53"/>
      </g>
      <g>
        <path d="M160.786 117.286V98.714" fill="#d7eef4" stroke="#6c5d53" stroke-width="3.127" stroke-linecap="round"/>
        <path d="M146.938 107.167h28.053l-14.264-10.33z" fill="#676c53"/>
        <path d="M148.067 103.357h25.795l-13.116-10z" fill="#676c53"/>
        <path d="M149.671 99.357h22.587l-11.485-10z" fill="#676c53"/>
        <path d="M150.429 95.357H171.5l-10.714-10z" fill="#676c53"/>
        <path d="M151.684 91.357h18.56l-9.437-10z" fill="#676c53"/>
        <path d="M152.954 87.357h16.02l-8.145-7.232z" fill="#676c53"/>
      </g>
      <g>
        <path d="M130.786 117.286V98.714" fill="#d7eef4" stroke="#6c5d53" stroke-width="3.127" stroke-linecap="round"/>
        <path d="M116.938 107.167h28.053l-14.264-10.33z" fill="#676c53"/>
        <path d="M118.067 103.357h25.795l-13.116-10z" fill="#676c53"/>
        <path d="M119.671 99.357h22.587l-11.485-10z" fill="#676c53"/>
        <path d="M120.429 95.357H141.5l-10.714-10z" fill="#676c53"/>
        <path d="M121.684 91.357h18.56l-9.437-10z" fill="#676c53"/>
        <path d="M122.954 87.357h16.02l-8.145-7.232z" fill="#676c53"/>
      </g>
      <g>
        <path d="M100.786 117.286V98.714" fill="#d7eef4" stroke="#6c5d53" stroke-width="3.127" stroke-linecap="round"/>
        <path d="M86.938 107.167h28.053l-14.264-10.33z" fill="#676c53"/>
        <path d="M88.067 103.357h25.795l-13.116-10z" fill="#676c53"/>
        <path d="M89.671 99.357h22.587l-11.485-10z" fill="#676c53"/>
        <path d="M90.429 95.357H111.5l-10.714-10z" fill="#676c53"/>
        <path d="M91.684 91.357h18.56l-9.437-10z" fill="#676c53"/>
        <path d="M92.954 87.357h16.02l-8.145-7.232z" fill="#676c53"/>
      </g>
      <g>
        <path d="M70.786 117.286V98.714" fill="#d7eef4" stroke="#6c5d53" stroke-width="3.127" stroke-linecap="round"/>
        <path d="M56.938 107.167H84.99l-14.264-10.33z" fill="#676c53"/>
        <path d="M58.067 103.357h25.795l-13.116-10z" fill="#676c53"/>
        <path d="M59.671 99.357h22.587l-11.485-10z" fill="#676c53"/>
        <path d="M60.429 95.357H81.5l-10.714-10z" fill="#676c53"/>
        <path d="M61.684 91.357h18.56l-9.437-10z" fill="#676c53"/>
        <path d="M62.954 87.357h16.02l-8.145-7.232z" fill="#676c53"/>
      </g>
      <g>
        <path d="M40.786 117.286V98.714" fill="#d7eef4" stroke="#6c5d53" stroke-width="3.127" stroke-linecap="round"/>
        <path d="M26.938 107.167H54.99l-14.264-10.33z" fill="#676c53"/>
        <path d="M28.067 103.357h25.795l-13.116-10z" fill="#676c53"/>
        <path d="M29.671 99.357h22.587l-11.485-10z" fill="#676c53"/>
        <path d="M30.429 95.357H51.5l-10.714-10z" fill="#676c53"/>
        <path d="M31.684 91.357h18.56l-9.437-10z" fill="#676c53"/>
        <path d="M32.954 87.357h16.02l-8.145-7.232z" fill="#676c53"/>
      </g>
    </g>
    <g>
      <path d="M24.786 125.286v-18.572" fill="#d7eef4" stroke="#917c6f" stroke-width="3.127" stroke-linecap="round"/>
      <path d="M10.938 115.167H38.99l-14.264-10.33z" fill="#8a916f"/>
      <path d="M12.067 111.357h25.795l-13.116-10z" fill="#8a916f"/>
      <path d="M13.671 107.357h22.587l-11.485-10z" fill="#8a916f"/>
      <path d="M14.429 103.357H35.5l-10.714-10z" fill="#8a916f"/>
      <path d="M15.684 99.357h18.56l-9.437-10z" fill="#8a916f"/>
      <path d="M16.954 95.357h16.02l-8.145-7.232z" fill="#8a916f"/>
      <path d="M54.786 125.286v-18.572" fill="#d7eef4" stroke="#917c6f" stroke-width="3.127" stroke-linecap="round"/>
      <path d="M40.938 115.167H68.99l-14.264-10.33z" fill="#8a916f"/>
      <path d="M42.067 111.357h25.795l-13.116-10z" fill="#8a916f"/>
      <path d="M43.671 107.357h22.587l-11.485-10z" fill="#8a916f"/>
      <path d="M44.429 103.357H65.5l-10.714-10z" fill="#8a916f"/>
      <path d="M45.684 99.357h18.56l-9.437-10z" fill="#8a916f"/>
      <path d="M46.954 95.357h16.02l-8.145-7.232z" fill="#8a916f"/>
      <g>
        <path d="M84.786 125.286v-18.572" fill="#d7eef4" stroke="#917c6f" stroke-width="3.127" stroke-linecap="round"/>
        <path d="M70.938 115.167H98.99l-14.264-10.33z" fill="#8a916f"/>
        <path d="M72.067 111.357h25.795l-13.116-10z" fill="#8a916f"/>
        <path d="M73.671 107.357h22.587l-11.485-10z" fill="#8a916f"/>
        <path d="M74.429 103.357H95.5l-10.714-10z" fill="#8a916f"/>
        <path d="M75.684 99.357h18.56l-9.437-10z" fill="#8a916f"/>
        <path d="M76.954 95.357h16.02l-8.145-7.232z" fill="#8a916f"/>
      </g>
      <g>
        <path d="M114.786 125.286v-18.572" fill="#d7eef4" stroke="#917c6f" stroke-width="3.127" stroke-linecap="round"/>
        <path d="M100.938 115.167h28.053l-14.264-10.33z" fill="#8a916f"/>
        <path d="M102.067 111.357h25.795l-13.116-10z" fill="#8a916f"/>
        <path d="M103.671 107.357h22.587l-11.485-10z" fill="#8a916f"/>
        <path d="M104.429 103.357H125.5l-10.714-10z" fill="#8a916f"/>
        <path d="M105.684 99.357h18.56l-9.437-10z" fill="#8a916f"/>
        <path d="M106.954 95.357h16.02l-8.145-7.232z" fill="#8a916f"/>
      </g>
      <g>
        <path d="M144.786 125.286v-18.572" fill="#d7eef4" stroke="#917c6f" stroke-width="3.127" stroke-linecap="round"/>
        <path d="M130.938 115.167h28.053l-14.264-10.33z" fill="#8a916f"/>
        <path d="M132.067 111.357h25.795l-13.116-10z" fill="#8a916f"/>
        <path d="M133.671 107.357h22.587l-11.485-10z" fill="#8a916f"/>
        <path d="M134.429 103.357H155.5l-10.714-10z" fill="#8a916f"/>
        <path d="M135.684 99.357h18.56l-9.437-10z" fill="#8a916f"/>
        <path d="M136.954 95.357h16.02l-8.145-7.232z" fill="#8a916f"/>
      </g>
      <g>
        <path d="M174.786 125.286v-18.572" fill="#d7eef4" stroke="#917c6f" stroke-width="3.127" stroke-linecap="round"/>
        <path d="M160.938 115.167h28.053l-14.264-10.33z" fill="#8a916f"/>
        <path d="M162.067 111.357h25.795l-13.116-10z" fill="#8a916f"/>
        <path d="M163.671 107.357h22.587l-11.485-10z" fill="#8a916f"/>
        <path d="M164.429 103.357H185.5l-10.714-10z" fill="#8a916f"/>
        <path d="M165.684 99.357h18.56l-9.437-10z" fill="#8a916f"/>
        <path d="M166.954 95.357h16.02l-8.145-7.232z" fill="#8a916f"/>
      </g>
      <g>
        <path d="M204.786 125.286v-18.572" fill="#d7eef4" stroke="#917c6f" stroke-width="3.127" stroke-linecap="round"/>
        <path d="M190.938 115.167h28.053l-14.264-10.33z" fill="#8a916f"/>
        <path d="M192.067 111.357h25.795l-13.116-10z" fill="#8a916f"/>
        <path d="M193.671 107.357h22.587l-11.485-10z" fill="#8a916f"/>
        <path d="M194.429 103.357H215.5l-10.714-10z" fill="#8a916f"/>
        <path d="M195.684 99.357h18.56l-9.437-10z" fill="#8a916f"/>
        <path d="M196.954 95.357h16.02l-8.145-7.232z" fill="#8a916f"/>
      </g>
      <g>
        <path d="M234.786 125.286v-18.572" fill="#d7eef4" stroke="#917c6f" stroke-width="3.127" stroke-linecap="round"/>
        <path d="M220.938 115.167h28.053l-14.264-10.33z" fill="#8a916f"/>
        <path d="M222.067 111.357h25.795l-13.116-10z" fill="#8a916f"/>
        <path d="M223.671 107.357h22.587l-11.485-10z" fill="#8a916f"/>
        <path d="M224.429 103.357H245.5l-10.714-10z" fill="#8a916f"/>
        <path d="M225.684 99.357h18.56l-9.437-10z" fill="#8a916f"/>
        <path d="M226.954 95.357h16.02l-8.145-7.232z" fill="#8a916f"/>
      </g>
      <g>
        <path d="M264.786 125.286v-18.572" fill="#d7eef4" stroke="#917c6f" stroke-width="3.127" stroke-linecap="round"/>
        <path d="M250.938 115.167h28.053l-14.264-10.33z" fill="#8a916f"/>
        <path d="M252.067 111.357h25.795l-13.116-10z" fill="#8a916f"/>
        <path d="M253.671 107.357h22.587l-11.485-10z" fill="#8a916f"/>
        <path d="M254.429 103.357H275.5l-10.714-10z" fill="#8a916f"/>
        <path d="M255.684 99.357h18.56l-9.437-10z" fill="#8a916f"/>
        <path d="M256.954 95.357h16.02l-8.145-7.232z" fill="#8a916f"/>
      </g>
      <g>
        <path d="M294.786 125.286v-18.572" fill="#d7eef4" stroke="#917c6f" stroke-width="3.127" stroke-linecap="round"/>
        <path d="M280.938 115.167h28.053l-14.264-10.33z" fill="#8a916f"/>
        <path d="M282.067 111.357h25.795l-13.116-10z" fill="#8a916f"/>
        <path d="M283.671 107.357h22.587l-11.485-10z" fill="#8a916f"/>
        <path d="M284.429 103.357H305.5l-10.714-10z" fill="#8a916f"/>
        <path d="M285.684 99.357h18.56l-9.437-10z" fill="#8a916f"/>
        <path d="M286.954 95.357h16.02l-8.145-7.232z" fill="#8a916f"/>
      </g>
    </g>
    <path d="M314.916 118.701s-2.021 1.04-3.031 1.04c-1.01 0-4.293 2.08-4.293 2.08l-3.79-2.08-4.292 3.64-4.725-2.313-6.387.752-4.798 2.86-2.02-3.12-4.799-1.3-7.322 3.9-4.674-3.092-2.902.233-1.768.78-2.273 3.12-3.79-2.34-4.292-1.3-4.041.779-2.02 3.12-8.914-4.392-2.703 3.873-2.271-3.12h-8.588l-1.768 2.08-4.293.519-5.303-3.12-5.074-.232-3.26 1.793-4.293 1.559-3.789-2.6-2.777-.779-4.799 2.08-3.545 2.434-2.68-1.657-2.142-2.941-4.822 3.494-3.57 2.207-2.68-1.656-3.035-2.574-1.608 2.39-4.107 1.655-2.32-2.942-3.215.553-3.215 2.941-2.856-2.023-3.394-1.47-3.213 1.654-1.25 2.023-3.572-2.023-5-2.573-4.108 3.309-7.678-2.758-.892 2.574-5.893 2.575-3.215-4.229-5.357-.37-1.785 3.128-6.072-1.104-1.786-2.023-3.392 1.103-2.322 2.024-3.75-2.207h-3.75l-1.428 2.023-3.037-1.84-3.928-1.287-1.607 1.655-4.108.185-1.963-1.656-2.322 1.84-1.965-2.942-4.5-1.545-1.392 2.647-1.428-2.389-3.393-.185-4.287 2.39-2.5-1.103-3.213 1.656-2.279-3.016-5.936 3.383-2.857-3.31-6.072 3.31.037-3.15-4.293 1.299-2.526-2.86-6.818 1.301L4.041 120 0 121.35v53.293h320v-53.87l-2.559 1.307z" fill="#c4c8b7"/>
    <path fill="url(#g)" d="M0 125h320v56.116H0z"/>
    <g>
      <g color="#000">
        <path d="M.046 181.934v-58.68" overflow="visible" fill="#d7eef4"/>
        <path d="M.26 118.317v62.334h4.727v-57.395a4.94 4.94 0 00-4.727-4.939z" overflow="visible" fill="#77665a"/>
      </g>
      <path d="M0 52.803l.26 100.732h44.67l-16.623-15.61h13.055l-16.576-12.64h11.508l-14.516-12.638h12.121l-13.541-12.639h9.574L18.004 87.37h7.916z" fill="#9ca47d"/>
    </g>
    <g>
      <g color="#000">
        <path d="M321.287 182.272v-58.68" overflow="visible" fill="#d7eef4"/>
        <path d="M320.68 119.066a4.94 4.94 0 00-4.334 4.53v57.394h4.334z" overflow="visible" fill="#77665a"/>
      </g>
      <path d="M320 55.283l-24.588 32.426h7.916L291.4 100.347h9.575l-13.541 12.64h12.12l-14.515 12.638h11.508l-16.576 12.639h13.054l-16.623 15.251h44.278v-35.964z" fill="#adb68a"/>
    </g>
    <g fill="#fff">
      <g color="#000">
        <path d="M40.003 38.055h16.423M40.003 32.718a5.337 5.337 0 00-5.337 5.337 5.337 5.337 0 005.337 5.338h16.422a5.337 5.337 0 005.338-5.338 5.337 5.337 0 00-5.338-5.337z" overflow="visible"/>
      </g>
      <path d="M58.868 31.76a7.117 7.117 0 01-7.117 7.116 7.117 7.117 0 01-7.117-7.116 7.117 7.117 0 017.117-7.117 7.117 7.117 0 017.117 7.117z"/>
      <path d="M48.225 34.081a4.795 4.795 0 01-4.796 4.795 4.795 4.795 0 01-4.795-4.795 4.795 4.795 0 014.795-4.795 4.795 4.795 0 014.796 4.795z"/>
    </g>
    <g fill="#fff">
      <g color="#000">
        <path d="M161.648 41.858h-13.295M161.648 37.537a4.32 4.32 0 014.32 4.32 4.32 4.32 0 01-4.32 4.322h-13.294a4.32 4.32 0 01-4.321-4.322 4.32 4.32 0 014.32-4.32z" overflow="visible"/>
      </g>
      <path d="M151.234 36.761a5.761 5.761 0 005.761 5.761 5.761 5.761 0 005.761-5.76 5.761 5.761 0 00-5.76-5.762 5.761 5.761 0 00-5.762 5.761z"/>
      <path d="M147.475 37.629a3.16 3.16 0 003.16 3.159 3.16 3.16 0 003.159-3.16 3.16 3.16 0 00-3.16-3.159 3.16 3.16 0 00-3.159 3.16z"/>
    </g>
    <g fill="#fff">
      <g color="#000">
        <path d="M256.924 29.715h13.295M256.924 25.394a4.32 4.32 0 00-4.32 4.32 4.32 4.32 0 004.32 4.322h13.295a4.32 4.32 0 004.32-4.322 4.32 4.32 0 00-4.32-4.32z" overflow="visible"/>
      </g>
      <path d="M267.339 24.618a5.761 5.761 0 01-5.762 5.762 5.761 5.761 0 01-5.76-5.762 5.761 5.761 0 015.76-5.76 5.761 5.761 0 015.762 5.76z"/>
      <path d="M270.924 24.618a2.87 2.87 0 01-2.87 2.87 2.87 2.87 0 01-2.87-2.87 2.87 2.87 0 012.87-2.87 2.87 2.87 0 012.87 2.87z"/>
    </g>
    <path d="M71.428 58.215l-17.244 8.967.644.943 8.03 3.303 3.214-2.5 4.643 2.5 10.357-1.07 6.33-3.653z" fill="#f9f9f9"/>
    <path d="M182.5 52.857l-11.068 8.434 8.21 3.709 3.573-1.428 5 3.57 2.142-2.5L195 62.858l2.143 1.428 2.113-2.676z" fill="#fff"/>
    <path d="M235 52.143l-9.264 7.964 6.05 2.75L235 60.715l3.928 2.142 3.572.358 1.428-1.43 2.636-1.406z" fill="#f2f2f2"/>
    <g>
      <g color="#000">
        <path d="M129.092 153.053v-31.811" overflow="visible" fill="#d7eef4"/>
        <path d="M129.092 118.563a2.678 2.678 0 00-2.678 2.68v31.81a2.678 2.678 0 00.012.238l3.379-2.021 1.966-.362v-29.666a2.678 2.678 0 00-2.68-2.68z" overflow="visible" fill="#816e61"/>
      </g>
      <path d="M129.166 89.4l-13.488 12.387h4.074l-6.25 6.851h4.947l-7.097 6.854h6.306l-7.605 6.851h5.94l-8.686 6.852h6.773l-8.709 6.525h48.055l-9.012-6.525h7.076l-8.986-6.852h6.238l-7.867-6.851h6.57l-7.341-6.854h5.189l-6.465-6.851h4.291z" fill="#99a17b"/>
    </g>
    <g>
      <g color="#000">
        <path d="M199.965 180.1v-41.742" overflow="visible" fill="#d7eef4"/>
        <path d="M199.965 134.842c-1.942 0-3.515 1.665-3.514 3.719v42.478h7.03v-42.478c0-2.055-1.574-3.72-3.516-3.72z" overflow="visible" fill="#947f71"/>
      </g>
      <path d="M200.062 96.577l-17.7 16.253h5.347l-8.201 8.99h6.491l-9.313 8.993h8.276l-9.98 8.99h7.793l-11.396 8.99h8.887l-11.427 8.563h63.055l-11.825-8.562h9.285l-11.791-8.99h8.186l-10.323-8.99h8.62l-9.633-8.994h6.81l-8.483-8.99h5.63z" fill="#9ea67f"/>
    </g>
    <path style="mix-blend-mode:normal" opacity=".15" fill="url(#h)" d="M0 0h320v180H0z"/>
  </g>
  <path d="M176.241 81.078l.002.002h-37.745a4.16 4.16 0 00-4.169 4.169v10.63a4.16 4.16 0 004.169 4.168h39.54a4.16 4.16 0 004.17-4.169v-6.744c.142-3.708 4.307-8.056 4.307-8.056z" fill="#483737"/>
  <path d="M175.397 79.953l.002.002h-37.745a4.16 4.16 0 00-4.169 4.169v10.63a4.16 4.16 0 004.17 4.168h39.54a4.16 4.16 0 004.169-4.169V88.01c.142-3.708 4.307-8.056 4.307-8.056z" fill="#dddad5"/>
  <g aria-label="i-am-laffer" fill="#6f6f91">
    <path d="M151.427 88.29h-.826v-.852h.826zm-.007 4.166h-.812v-3.644h.812zM153.732 90.66h-1.72v-.755h1.72zM156.658 92.456h-.79v-.126l-.563.086q-.368.055-.559.055-.451 0-.451-.444v-1.313q0-.451.465-.451h1.115v-.837h-.79v.52h-.747v-.683q0-.45.466-.45h1.396q.458 0 .458.45zm-.783-.657v-.977h-.79v1.006zM161.269 92.456h-.82v-2.955l-.775.015v2.94h-.822v-2.955l-.776.015v2.94h-.826v-3.644h.826v.134l.574-.094q.35-.054.58-.054.285 0 .368.162.303-.047.606-.097.4-.065.614-.065.45 0 .45.444zM163.56 90.66h-1.721v-.755h1.72zM164.97 92.456h-.811V86.81h.811zM167.932 92.456h-.79v-.126l-.563.086q-.368.055-.559.055-.45 0-.45-.444v-1.313q0-.451.465-.451h1.114v-.837h-.79v.52h-.747v-.683q0-.45.466-.45h1.396q.458 0 .458.45zm-.783-.657v-.977h-.79v1.006zM170.126 87.528h-.606v1.284h.526v.704h-.526v2.94h-.82v-2.94h-.375v-.704h.376v-1.551q0-.451.458-.451h.967zM172.03 87.528h-.606v1.284h.527v.704h-.527v2.94h-.818v-2.94h-.376v-.704h.376v-1.551q0-.451.458-.451h.967zM174.69 92.005q0 .451-.466.451h-1.425q-.465 0-.465-.45v-2.743q0-.45.465-.45h1.425q.465 0 .465.45v1.339l-.227.227h-1.338v1.021h.775v-.606h.79zm-.79-1.714v-.873h-.776v.873zM177.586 90.335h-.819V89.5l-.653.015v2.94h-.826v-3.644h.826v.134l.51-.094q.306-.054.511-.054.451 0 .451.444z"/>
  </g>
  <path d="M138.529 85.046c-.126 0-.163.07-.263.492-.076.321-.082.392-.069.783.014.345.032.484.096.7.044.148.08.294.08.324 0 .03-.049.102-.11.16a2.53 2.53 0 00-.454.696c-.219.522-.295 1.02-.317 2.07-.015.691-.01.853.034 1.07.16.786.43 1.31.94 1.822.563.564 1.299.925 2.274 1.117.228.045 3.527.046 3.763 0 .56-.112.811-.194 1.261-.414 1.04-.507 1.693-1.331 1.905-2.403.068-.343.092-1.199.048-1.731-.089-1.09-.266-1.638-.692-2.136-.093-.11-.17-.228-.17-.263s.033-.164.074-.285c.104-.307.152-.67.13-.986-.021-.296-.147-.831-.223-.947-.044-.067-.064-.074-.176-.056-.452.073-1.021.48-1.478 1.057-.098.124-.199.233-.225.243-.026.01-.125-.024-.22-.076-.382-.207-.828-.282-1.831-.305-1.223-.03-1.894.048-2.336.267a1.523 1.523 0 01-.293.122c-.027 0-.106-.08-.178-.177-.411-.562-1.21-1.144-1.57-1.144z" fill="#6f6f91"/>
</svg>
