<svg xmlns="http://www.w3.org/2000/svg" xmlns:xlink="http://www.w3.org/1999/xlink" width="100%" height="100%" viewBox="0 0 320 180" version="1.0">
  <defs>
    <linearGradient id="e">
      <stop offset="0" stop-color="#e2dbe3" stop-opacity=".499"/>
      <stop offset="1" stop-color="#e2dbe3" stop-opacity="0"/>
    </linearGradient>
    <linearGradient id="d">
      <stop offset="0" stop-color="#ff7900"/>
      <stop offset="1" stop-color="#ffd42a" stop-opacity="0"/>
    </linearGradient>
    <linearGradient id="c">
      <stop offset="0" stop-color="#c87137"/>
      <stop offset="1" stop-color="#6c5367" stop-opacity="0"/>
    </linearGradient>
    <linearGradient id="b">
      <stop offset="0" stop-color="#93a7ac"/>
      <stop offset="1" stop-color="#6c5367" stop-opacity="0"/>
    </linearGradient>
    <linearGradient id="a">
      <stop offset="0" stop-color="#483737"/>
      <stop offset="1" stop-color="#483737" stop-opacity="0"/>
    </linearGradient>
    <linearGradient xlink:href="#b" id="h" x1="128.289" y1="167.685" x2="126.522" y2="86.621" gradientUnits="userSpaceOnUse" gradientTransform="translate(0 -298.945)"/>
    <linearGradient xlink:href="#c" id="f" x1="208.344" y1="125.259" x2="208.344" y2="42.174" gradientUnits="userSpaceOnUse"/>
    <linearGradient xlink:href="#e" id="j" x1="200.357" y1="47.143" x2="200.357" y2="63.571" gradientUnits="userSpaceOnUse" gradientTransform="matrix(.76746 0 0 .76746 35.597 39.182)"/>
    <linearGradient xlink:href="#e" id="k" x1="271.786" y1="68.214" x2="271.786" y2="87.857" gradientUnits="userSpaceOnUse" gradientTransform="matrix(.74367 0 0 .74367 75.525 20.045)"/>
    <linearGradient xlink:href="#e" id="l" gradientUnits="userSpaceOnUse" x1="227.143" y1="40.714" x2="227.5" y2="55.357" gradientTransform="translate(-2.143 2.857)"/>
    <linearGradient xlink:href="#e" id="g" gradientUnits="userSpaceOnUse" x1="134.286" y1="28.571" x2="134.286" y2="46.786" gradientTransform="matrix(1 0 0 .60036 -78.214 -.933)"/>
    <linearGradient xlink:href="#e" id="m" gradientUnits="userSpaceOnUse" x1="165.357" y1="36.071" x2="165.357" y2="51.429" gradientTransform="matrix(.75819 0 0 .75819 4.215 23.32)"/>
    <radialGradient xlink:href="#d" id="i" cx="257.857" cy="125" fx="257.857" fy="125" r="46.788" gradientTransform="matrix(1.17153 0 0 1.09482 -82.23 -11.853)" gradientUnits="userSpaceOnUse"/>
  </defs>
  <path fill="#6c5367" d="M0 0h320v180H0z"/>
  <path fill="url(#f)" d="M0 0h320v118.945H0z"/>
  <path d="M31.732 22.105c2.28-.126 6.83-.377 9.705-1.113 2.875-.735 4.081-1.953 4.86-2.697.778-.744 1.128-1.012 1.492-1.352.364-.34.745-.752 1.183-1 .437-.249.924-.335 1.713-.203.79.13 1.88.474 2.975.768 1.095.294 2.196.54 3.153.734.958.194 1.773.337 2.981-.2s2.817-1.75 3.894-2.36c1.077-.61 1.617-.622 2.32-.35.705.272 1.572.821 2.329 1.322.756.5 1.402.952 1.998 1.533.597.582 1.147 1.29 1.927 1.826.78.535 1.785.9 2.851.815 1.067-.087 2.2-.618 3.085-.906.885-.288 1.52-.334 2.678.382 1.159.716 2.841 2.186 4.36 3.556 1.518 1.37 2.873 2.639 3.551 3.484.679.846.69 1.269.594 1.623-.095.354-.296.645-1.366.96-1.07.313-3.017.65-4.54.82-1.524.17-2.624.17-4.312-.186-1.687-.356-3.962-1.07-5.34-1.342-1.378-.272-1.854-.095-2.646.04-.793.136-1.904.227-2.968.381s-2.08.371-4.587.119c-2.507-.253-6.507-.979-9.71-1.166-3.201-.188-5.603.167-8.047.182-2.444.016-4.93-.31-6.726-.34-1.795-.03-2.895.238-4.519.376-1.623.139-3.772.144-5.582-.504s-3.281-1.957-4.042-2.77c-.76-.812-.802-1.126.064-1.43.866-.305 2.634-.591 3.513-.733.88-.142.88-.142 3.16-.269z" opacity=".308" fill="url(#g)"/>
  <path transform="scale(1 -1)" fill="url(#h)" d="M0-180h320v61.055H0z"/>
  <path d="M219.5 97.5a32.143 32.143 0 00-29.904 20.357h59.808A32.143 32.143 0 00219.5 97.5z" opacity=".372" fill="#ffd42a"/>
  <g opacity=".458" fill="#dbe2e3">
    <path d="M48.502 140.088s3.09-1.325 4.526-.883c1.435.441 3.532 1.766 5.077 1.545M64.502 148.088s3.09-1.325 4.526-.883c1.435.441 3.532 1.766 5.077 1.545M76.502 140.088s3.09-1.325 4.526-.883c1.435.441 3.532 1.766 5.077 1.545M125.242 161.554s3.09-1.325 4.525-.884c1.435.442 3.533 1.767 5.078 1.546M140.141 153.725s3.091-1.325 4.526-.883c1.435.441 3.533 1.766 5.078 1.545M147.97 160.796s3.09-1.325 4.526-.883c1.435.441 3.532 1.766 5.078 1.545M160.85 157.765s3.09-1.324 4.525-.883c1.435.442 3.533 1.767 5.078 1.546M205.044 139.835s3.09-1.324 4.526-.883c1.435.442 3.532 1.766 5.077 1.546M215.65 145.139s3.091-1.325 4.526-.884c1.435.442 3.532 1.767 5.078 1.546M228.53 152.21s3.09-1.325 4.526-.883c1.435.441 3.532 1.766 5.077 1.545M242.672 156.25s3.09-1.324 4.526-.883c1.435.442 3.532 1.766 5.077 1.546M236.358 143.623s3.091-1.324 4.526-.883c1.435.442 3.533 1.766 5.078 1.546M250.248 147.159s3.09-1.325 4.526-.883c1.435.441 3.532 1.766 5.078 1.545M250.5 137.31s3.091-1.325 4.526-.883c1.435.441 3.533 1.766 5.078 1.545M168.205 148.422s3.09-1.325 4.526-.884c1.435.442 3.532 1.767 5.077 1.546M184.205 156.422s3.09-1.325 4.526-.884c1.435.442 3.532 1.767 5.077 1.546M196.205 148.422s3.09-1.325 4.526-.884c1.435.442 3.532 1.767 5.077 1.546M77.039 154.482s3.09-1.324 4.525-.883c1.435.442 3.533 1.767 5.078 1.546M93.039 162.482s3.09-1.324 4.525-.883c1.435.442 3.533 1.767 5.078 1.546M105.039 154.482s3.09-1.324 4.525-.883c1.435.442 3.533 1.767 5.078 1.546" opacity=".152"/>
    <g>
      <path d="M5.65 154.781s3.091-1.324 4.526-.883c1.435.442 3.532 1.766 5.078 1.546M18.53 161.852s3.09-1.324 4.526-.883c1.435.442 3.532 1.767 5.077 1.546M32.672 165.893s3.09-1.325 4.526-.883c1.435.442 3.532 1.766 5.077 1.545M26.358 153.266s3.091-1.324 4.526-.883c1.435.442 3.533 1.766 5.078 1.545M40.248 156.802s3.09-1.325 4.526-.883c1.435.441 3.532 1.766 5.078 1.545M40.5 146.953s3.091-1.325 4.526-.883c1.435.441 3.533 1.766 5.078 1.545" opacity=".152"/>
    </g>
    <g>
      <path d="M218.788 156.66s3.09-1.325 4.525-.884c1.435.442 3.533 1.766 5.078 1.546M279.527 170.125s3.091-1.325 4.526-.883c1.435.441 3.533 1.766 5.078 1.545M294.427 162.296s3.09-1.324 4.526-.883c1.435.442 3.532 1.766 5.078 1.546M302.256 169.367s3.09-1.324 4.526-.883c1.435.442 3.532 1.766 5.077 1.546M231.324 163.054s3.091-1.325 4.526-.883c1.435.441 3.532 1.766 5.078 1.545M247.324 171.054s3.091-1.325 4.526-.883c1.435.441 3.532 1.766 5.078 1.545M259.324 163.054s3.091-1.325 4.526-.883c1.435.441 3.532 1.766 5.078 1.545" opacity=".152"/>
    </g>
    <g>
      <path d="M267.385 150.84s3.09-1.325 4.525-.884c1.435.442 3.533 1.766 5.078 1.546M282.284 143.01s3.091-1.324 4.526-.883c1.435.442 3.532 1.767 5.078 1.546M290.113 150.082s3.09-1.325 4.526-.883c1.435.441 3.532 1.766 5.077 1.545M302.992 147.051s3.091-1.324 4.526-.883c1.435.442 3.533 1.766 5.078 1.545" opacity=".152"/>
    </g>
  </g>
  <ellipse cx="219.857" cy="125" rx="54.814" ry="51.225" opacity=".236" fill="url(#i)"/>
  <path d="M159.417 83.168c1.012-.72 3.034-2.16 4.817-2.8 1.782-.638 3.317-.477 4.648-.986 1.332-.508 2.47-1.685 3.339-2.537.869-.852 1.47-1.378 1.895-1.837.426-.46.678-.854 1.913-.983 1.235-.129 3.444.01 4.577-.231 1.132-.242 1.197-.87 2.046-1.203.849-.333 2.473-.362 4.065.358 1.592.72 3.152 2.182 4.33 2.972s1.973.915 2.766.672c.792-.242 1.588-.849 3.101.318s3.739 4.099 4.93 6.083c1.191 1.985 1.354 3.023.744 3.57-.61.548-2 .613-3.347 1.36-1.348.745-2.648 2.17-4.629 2.428-1.98.257-4.653-.657-6.74-.688-2.086-.032-3.58.824-5.835 1-2.255.177-5.276-.327-7.317-.35-2.041-.024-3.097.437-5.56-.029-2.461-.465-6.335-1.861-8.366-3.08-2.03-1.217-2.209-2.263-2.299-2.79-.09-.527-.09-.527.922-1.247z" opacity=".27" fill="url(#j)"/>
  <path d="M246.338 80.353c.298-.117.888-.351 3.218-.953s6.399-1.572 8.91-2.053c2.512-.481 3.464-.474 4.543-1.07 1.078-.594 2.29-1.791 3.646-2.55 1.357-.758 2.852-1.077 3.866-1.392 1.013-.315 1.548-.627 2.62-1.105 1.07-.479 2.676-1.123 5.11-.436s5.692 2.698 7.624 3.687c1.93.989 2.537.96 3.27 1.076.732.114 1.59.37 2.208.357.618-.013 1.004-.289 1.657-.344.653-.056 1.565.107 2.215.039.65-.069 1.043-.366 1.956-.083.912.283 2.337 1.14 3.722 1.762 1.385.621 2.731 1.011 4.136 1.586 1.405.575 2.868 1.332 4.115 2.212 1.247.88 2.278 1.878 3.416 2.595 1.137.717 2.38 1.156 3.403 1.771 1.023.615 1.825 1.401 2.07 1.96.243.56-.064.9-1.508 1.268-1.445.368-4.034.764-5.552.855-1.517.092-1.966-.128-3.265-.265-1.3-.136-3.448-.186-5.108-.393-1.66-.208-2.832-.576-4.738-.656-1.905-.08-4.542.133-6.921-.06-2.38-.194-4.505-.796-5.916-.925-1.412-.13-2.105.217-3.661.59-1.557.372-3.98.768-7.214.433-3.233-.334-7.278-1.404-10.773-1.95a41.855 41.855 0 00-8.454-.47c-2.016.099-3.102.319-5.56.146-2.458-.172-6.29-.739-8.966-1.08-2.676-.34-4.195-.453-5.262-.489-1.067-.036-1.68.007-.927-.578.753-.585 2.878-1.796 5.08-2.461 2.202-.666 4.476-.786 5.61-.846 1.133-.06 1.133-.06 1.43-.178z" opacity=".399" fill="url(#k)"/>
  <path d="M189.596 117.857c.28.511.568 1.034 2.761 1.466 2.193.431 6.294.795 8.87 1.172 2.577.377 3.628.765 4.014 1.01.386.247.112.358-.215.553-.327.196-.705.476-1.839.757s-3.031.564-3.997.837c-.966.272-.993.525-.5.764.493.24 1.492.472 4.219.823 2.727.351 7.183.823 9.42 1.126 2.237.303 2.263.428 2.185.615-.079.187-.259.447-1.137.753-.879.306-2.465.663-2.582.863-.116.2 1.235.24 2.846.383 1.61.144 3.482.39 4.418.566.936.177.947.275.835.6-.112.325-.344.884-1.887 1.3-1.542.415-4.388.691-3.755 1.078.633.386 4.653.859 6.026 1.543 1.374.685 0 1.536.262 2.016s2.168.561 3.121.287c.953-.274.938-.893 1.366-1.472.427-.579 1.263-1.073 2.972-1.496 1.71-.423 4.264-.762 5.386-1.027 1.122-.265.808-.464-.332-.618-1.14-.155-3.104-.26-3.3-.554-.197-.294 1.378-.776 2.964-1.291a172.992 172.992 0 004.3-1.462 75.707 75.707 0 002.068-.765c.316-.122.316-.122-1.298-.12-1.613.002-4.49.005-5.946-.21-1.456-.217-1.298-.658-.558-1.017.74-.359 2.053-.628 3.845-.955 1.793-.326 4.064-.71 5.546-.93 1.482-.22 2.174-.278 2.842-.442.667-.164 1.315-.433 1.629-.636.314-.202.3-.35-.723-.513-1.022-.164-3.061-.332-3.453-.596-.39-.264.87-.621 1.985-.834 1.114-.213 2.08-.284 3.294-.856 1.215-.573 2.685-1.644 4.156-2.718h-59.808z" opacity=".361" fill="#ffc355"/>
  <path d="M195.677 54.226c.434-.381 1.302-1.143 1.962-1.903.66-.76 1.115-1.523 2.879-1.656 1.763-.134 4.821.36 7.217-.744s4.142-3.81 5.403-5.43c1.261-1.621 2.034-2.155 2.652-2.367.619-.212 1.074-.107 2.132.452 1.059.56 2.72 1.569 5.459 1.712 2.739.144 6.56-.57 9.279.264 2.72.835 4.339 3.207 6.201 4.163 1.862.955 3.968.507 5.984 2.143 2.015 1.635 3.941 5.34 3.46 7.638-.482 2.298-3.371 3.203-6.55 3.637-3.177.435-6.648.397-9.714.891-3.066.494-5.723 1.523-7.883 1.726-2.161.203-3.833-.425-5.77-.865-1.937-.44-4.139-.687-5.53-.928-1.39-.241-1.973-.48-3.435-.34-1.463.14-3.802.663-7.18.19-3.38-.473-7.803-1.95-10.026-2.87-2.223-.921-2.233-1.293-1.36-2.094.874-.8 2.631-2.02 3.509-2.629.877-.609.877-.609 1.311-.99z" opacity=".304" fill="url(#l)"/>
  <path d="M98.5 59.244c.676-.002 1.669-.092 2.297-.272.628-.18.9-.451 1.308-.678.408-.226.95-.406 1.308-.586.36-.18.54-.36.95-.496.408-.136 1.04-.226 2.032-.543.992-.316 2.345-.857 4.153-.992 1.807-.134 4.064.137 5.188.23 1.124.094 1.124.004 1.218-.045.094-.049.275-.049.496-.229.221-.18.492-.54.673-1.125.18-.584.27-1.396.41-1.806.14-.41.32-.41.496-.588.176-.18.357-.54.542-.722.185-.182.365-.182.496-.315s.221-.404.361-.542c.14-.138.32-.138.407-.179.087-.041.087-.131.18-.18.095-.05.275-.05.5-.095.224-.046.494-.136.627-.222.134-.086.134-.176.363-.225.23-.049.68-.049.994-.095.314-.046.495-.136 1.22-.135.724.001 1.987.091 2.98.501.993.41 1.715 1.132 2.212 1.536.497.404.768.494 1.4.947.63.453 1.624 1.266 3.247 1.397 1.623.131 3.88-.41 5.19-.542 1.31-.131 1.671.14 2.033.364.36.225.722.405 1.036.769.313.363.584.905 1.218 1.444.634.54 1.627 1.081 2.258 1.489.631.407.902.678 1.715 1.173.813.495 2.167 1.217 2.794 1.759.626.542.536.903.405 1.08-.13.178-.311.178-.54.314-.23.135-.501.406-.77.586-.268.18-.539.27-.676.41-.138.14-.138.32-.229.543-.09.223-.271.493-.361.812-.09.32-.09.68-1.936.812-1.847.132-5.547.041-7.536.086-1.989.044-2.26.225-2.98.45-.72.226-1.893.497-2.705.677-.813.18-1.264.271-1.76.095-.494-.177-1.036-.628-1.31-.944-.276-.315-.276-.496-.317-.59-.041-.094-.132-.094-.312-.181-.18-.088-.45-.268-1.263-.406s-2.167-.228-2.936-.23c-.77 0-.95.09-1.31.136-.358.046-.9.046-2.028.135-1.13.09-2.844.27-5.1.361-2.256.091-5.054.091-7.582.136-2.527.045-4.784.135-6.272.047-1.488-.089-2.21-.36-2.978-.496-.768-.137-1.58-.137-2.618-.272-1.038-.134-2.301-.405-2.98-.627-.68-.222-.77-.403-1.083-.63a5.453 5.453 0 00-1.262-.637c-.407-.138-.678-.138-.86-.223-.182-.086-.272-.267-.947-.451-.675-.185-1.939-.365-2.395-.681-.456-.316-.095-.768 1.489-1.084 1.583-.317 4.381-.497 5.826-.538 1.444-.042 1.534.049 1.76.136.227.088.588.178 1.264.177z" opacity=".222" fill="url(#m)"/>
  <path d="M46.698 95.303a10.828 10.828 0 01-.722-1.024l-.392-.632-.66.075c-.392.044-.61.026-.535-.046.245-.24 1.55-.676 2.02-.676.417 0 .458.027.31.205-.139.168-.131.235.043.368.28.216.605 1.785.409 1.98-.1.1-.24.027-.473-.25zm6.416-8.193c-.088-.74-.418-1.346-.732-1.346-.114 0-.402.149-.64.33l-.434.331-.063-.33c-.034-.182-.016-.33.042-.33s.396-.225.752-.498c.515-.396.779-.504 1.294-.527.538-.025.634.006.567.18a.44.44 0 00.074.393c.086.104.121.384.08.636-.088.542-.624 1.825-.763 1.825-.054 0-.134-.299-.178-.664zm24.676-7.362c-.327-.287-.712-.753-.857-1.036-.144-.283-.338-.595-.43-.693a.65.65 0 01-.168-.37c0-.323-.335-.214-.648.21-.376.508-.564.505-.948-.013-.35-.473-.3-.549.49-.774.314-.09.568-.205.565-.257-.003-.052-.199-.216-.435-.364-.507-.317-1.168-1.46-.963-1.664.182-.182 2.032.705 2.372 1.137.183.233.389.327.716.327.443 0 .602.164.325.335-.2.124-.16.681.062.867.26.216.684 1.389.788 2.181.105.803-.061.825-.87.114zm10.325-1.08c-.718-.217-1.998-1.225-1.998-1.573 0-.096-.09-.174-.201-.174-.11 0-.201-.06-.201-.134 0-.23-.483-.148-.853.144-.37.29-.762.304-.854.029-.03-.09.147-.246.391-.348.784-.328.839-.53.243-.897-.608-.376-.981-.987-.916-1.499l.046-.36.469.227c.683.33 1.502.884 1.8 1.218.194.216.354.27.624.21.43-.094.608.101.315.344-.18.15-.142.24.315.72.521.546 1.368 1.84 1.368 2.09 0 .15-.064.15-.548.004zm-45.89-1.897c-.118-.191.048-.323.646-.514.493-.158.649-.458.39-.75-.063-.07-.285-.55-.495-1.065-.209-.516-.444-1.023-.523-1.127-.275-.365.955-.073 1.452.344.496.417.687.72.81 1.29.076.348.118.369.58.294l.5-.08-.537.477c-.294.263-.777.543-1.072.623a9.11 9.11 0 00-1.1.397c-.375.168-.593.205-.651.11zm27.665-2.885a5.472 5.472 0 01.01-.55c.03-.526-.228-.574-.818-.155-.383.273-.786.27-.786-.006 0-.075.21-.225.469-.332.494-.207.541-.29.342-.604-.1-.16-.185-.165-.484-.029-.46.21-.566.12-.164-.14.763-.491 1.705-.64 1.977-.312.09.109.294.184.452.168.679-.07.265 1.282-.55 1.798-.239.152-.44.224-.448.162zm4.29-.86l.515-.232-.173-.667a5.27 5.27 0 00-.534-1.24l-.361-.572.622.085c.705.097 1.372.562 1.907 1.329.192.276.432.502.533.502.303 0 .204.185-.258.484-.597.386-.87.459-1.888.503l-.878.038zm6.47-1.431c-.331-.35-.685-.833-.786-1.072-.193-.461-.438-.535-1.03-.31-.241.092-.375.079-.48-.049-.116-.139-.033-.194.391-.262.296-.047.538-.122.538-.166 0-.043-.15-.258-.335-.477-.4-.475-.422-.646-.084-.646.303 0 1.449.493 1.558.67.043.069.256.09.474.046.446-.089.515.039.163.298-.22.163-.221.2-.011.618.385.769.68 1.692.587 1.842-.161.26-.373.153-.985-.492zm-23.962-2.157a7.243 7.243 0 01-1.027-.963c-.489-.571-.496-.574-1.012-.42-.792.238-.96.181-.322-.108.313-.142.57-.307.57-.366.002-.059-.189-.263-.422-.455-.232-.191-.384-.411-.336-.488.108-.177 1.094.028 1.54.32.182.117.448.17.629.125.377-.094.538.097.269.32-.164.136-.135.24.196.696.47.649.749 1.427.574 1.601-.077.077-.33-.024-.659-.262zm16.227-4.074a5.709 5.709 0 01-1.062-1.893c-.062-.2-.167-.237-.511-.179-.238.04-.531.112-.65.159-.133.052-.248.006-.296-.12-.058-.15.06-.242.451-.347.292-.078.53-.186.53-.238 0-.053-.177-.264-.394-.468-.373-.353-.635-.853-.51-.978.075-.075 1.763.764 1.82.906.025.06.246.11.491.11.437 0 .443.007.299.39-.118.312-.103.497.074.905.122.283.311.87.42 1.307.3 1.2.105 1.331-.662.446zm-15.808-3.098c.244-.178.24-.21-.109-1.014-.374-.864-.472-1.799-.204-1.964.146-.09.524.279 1.275 1.246.228.293.327.34.456.214.283-.278.7.044.596.46-.053.212-.023.384.076.446.27.167-1.133.796-1.776.796-.512 0-.542-.018-.314-.184zm-27.803-2.434c0-.1.06-.218.134-.263.074-.046.134-.208.134-.36 0-.23-.061-.264-.368-.202-.203.04-.474.115-.603.165-.137.053-.235.029-.235-.058 0-.081.064-.148.142-.148.077 0 .54-.24 1.027-.534.616-.372.934-.494 1.045-.402.088.073.353.094.589.047l.429-.086-.42.622c-.231.343-.611.765-.845.938-.532.395-1.029.53-1.029.281zm73.808-.097c.258-.124.299-.22.232-.554-.044-.221-.13-.436-.19-.476-.508-.344-.831-.691-.756-.813.264-.427 2.543.36 2.544.879 0 .18.119.28.392.327.39.068.387.07-.286.437-.53.289-.848.367-1.463.36-.682-.008-.745-.03-.473-.16zm-56.54-1.445c-.619-.32-1.954-1.536-2.062-1.877-.098-.309-.523-.334-1.003-.06-.428.245-.67.25-.67.016 0-.101.18-.259.398-.35.66-.272.734-.465.337-.862-.377-.377-.786-1.218-.933-1.92-.081-.388-.059-.435.21-.435.3 0 1.804 1.387 2.1 1.937.11.207.26.254.72.227l.578-.034-.298.317c-.164.175-.298.35-.298.39 0 .041.187.309.416.595.553.693 1.24 2.068 1.102 2.202-.06.058-.33-.007-.597-.146zm29.395-1.679c.439-.238.433-.201.11-.776-.251-.448-.487-1.493-.458-2.028.034-.626.037-.628.458-.328.498.355 1.19 1.42 1.194 1.836.003.344.103.369.444.11.283-.215.764-.127.764.14 0 .102-.064.185-.142.185-.078 0-.106.058-.062.13.14.225-1.471.943-2.103.937l-.574-.006.369-.2zm59.537-.059c-.362-.141-.721-.32-.797-.396-.076-.076-.398-.138-.715-.138-.55 0-.565-.01-.339-.234.33-.325 1.104-.578 2.011-.656.692-.06.743-.047.523.132-.233.19-.226.224.165.763.613.846.363 1.002-.848.53zm-24.772-.132c.058-.218.004-.268-.287-.268-.196 0-.54.095-.764.21-.394.204-.786.182-.786-.042 0-.06.257-.198.57-.306.514-.178.57-.24.574-.642.005-.519-.018-.539-.773-.68-.314-.06-.481-.138-.37-.175.11-.036.411-.146.67-.243a2.72 2.72 0 011.64-.086c.296.075.37.17.37.479 0 .35.04.384.435.366.366-.017.428.023.39.248-.055.332-.638.966-1.12 1.218-.493.257-.631.238-.549-.079zm3.743-.227c-.127-.126.045-.309.29-.31.125 0 .422-.119.66-.264l.434-.264-.333-.627c-.429-.806-.477-2.173-.086-2.418.203-.126.28-.105.435.119.104.15.253.34.33.423.163.174.628 1.05.845 1.592.123.308.227.368.64.368.486 0 .49.003.247.272-.241.266-.237.28.213.657.253.212.414.432.358.489-.056.057-.538.027-1.072-.066s-1.166-.201-1.405-.24c-.246-.039-.663.022-.957.14-.286.114-.556.172-.6.13zM93.15 55.39a5.666 5.666 0 01-.785-.535c-.226-.187-.48-.289-.618-.245-.129.04-.372-.037-.54-.174l-.307-.248.475-.293c.55-.34 1.626-.69 2.11-.685l.335.003-.328.273c-.271.226-.3.313-.169.498.203.286.832 1.466.832 1.56 0 .148-.618.053-1.005-.154zm8.266-.287c-.306-.282-.683-.8-.839-1.152-.277-.627-.292-.638-.773-.557-.937.156-1.017.15-1.065-.09-.036-.175.04-.234.306-.234.29 0 .779-.17.983-.341.025-.02-.065-.205-.2-.41-.134-.204-.274-.676-.312-1.048l-.068-.675-.6.044c-.33.024-.773.132-.984.242-.21.109-.483.158-.606.11-.18-.07-.145-.129.188-.31.226-.124.54-.32.7-.435l.287-.21-.263-.533c-.286-.578-.43-1.85-.275-2.433.127-.478.575-.55.84-.138.215.333.581 1.362.755 2.117.096.419.163.477.624.536.465.06.494.086.29.254-.212.175-.212.203-.001.436.123.136.182.248.13.248-.051 0 .09.267.315.594.224.326.408.676.408.777 0 .294.292.505.697.505.451 0 .481.165.078.433-.286.19-.288.209-.066.548.347.53.799 1.82.714 2.04-.134.35-.691.21-1.264-.318zm-9.79-2.837c-.378-.298-.687-.622-.687-.719 0-.097-.12-.286-.268-.42-.147-.133-.267-.297-.267-.365s-.097-.22-.216-.338c-.184-.184-.277-.19-.636-.046-.677.272-.89.32-.89.195 0-.063.226-.236.502-.384.572-.305.569-.478-.01-.67-.599-.198-.656-.527-.074-.426.249.043 1.024.12 1.722.172 1.179.086 1.248.107.971.29-.353.235-.379.467-.078.717.12.1.339.454.485.786.708 1.612.508 2.048-.555 1.208zm38.067-.547c.02-.091-.114-.21-.298-.265-.184-.054-.26-.105-.167-.112.092-.008.167-.107.167-.222 0-.114.21-.295.465-.401.53-.222 1.009-.254 1.009-.07 0 .071.222.09.502.046.436-.07.48-.054.338.12-.185.224-1.277.835-1.748.977-.209.064-.293.04-.268-.073zm-96.481-.398c.184-.528.087-.607-.519-.421-.606.185-.754.099-.225-.131.212-.093.536-.311.718-.487.53-.508 1.06-.74 1.28-.559.1.084.293.12.425.079.133-.042.317-.027.411.031.125.079.089.15-.135.27-.168.09-.455.382-.637.649-.33.48-.99.977-1.3.978-.121 0-.126-.1-.018-.409zM13.76 49.49c0-.07.234-.198.52-.284.688-.206.919-.477.642-.754-.293-.293-.7-2.437-.552-2.905.108-.34.234-.312.68.148.48.494.939 1.39 1.05 2.05.078.467.117.503.547.503.282 0 .462.065.46.167-.002.202-1.288.778-2.057.92-.304.058-.719.144-.921.194-.208.05-.369.034-.369-.039zm60.019-.932a1.584 1.584 0 01-.072-.737c.053-.269.013-.371-.158-.404-.408-.08 1.21-.685 1.981-.741l.737-.054-.324.261c-.179.144-.427.524-.553.844-.23.59-.618.963-1.166 1.121-.245.071-.328.017-.445-.29zm33.27-.573c-.313-.144-.606-.355-.65-.469-.098-.256-.545-.265-1.14-.023-.528.215-.786.157-.786-.177 0-.185.146-.26.636-.326.98-.133 1.063-.227.745-.84-.366-.708-.46-1.433-.287-2.235.194-.905.398-1.106.73-.716.29.339.68 1.33.906 2.302.13.562.21.676.488.71.67.08.757.17.366.376-.44.233-.448.286-.104.652.145.155.281.43.301.611.05.44-.426.493-1.204.135zm-68.9-4.863c-.394-.787-.808-1.283-.895-1.07-.037.092-.12.136-.181.097-.063-.038-.205.06-.315.218-.277.395-.621.24-.621-.279 0-.33-.056-.406-.298-.406-.185 0 .085-.196.71-.515 1.294-.662 2.85-.896 2.407-.362-.08.096-.078.494.004 1.07.245 1.733-.214 2.44-.81 1.247zm43.086-.931c-.249-.354-.091-.504.534-.507.385-.002 1.126-.39.762-.4-.092-.002-.167-.117-.167-.256 0-.234-.103-.298-1.005-.624-.23-.082-.2-.115.2-.226.259-.07.505-.187.55-.258.086-.14 1.313-.02 1.598.156.094.058.177.277.184.487.012.33.077.391.479.449l.465.067-.51.42c-.665.547-1.559.915-1.559.641 0-.259-.181-.239-.7.077-.549.335-.58.334-.831-.026zm-11.494-3.141c-.03-.257-.005-.496.054-.533.173-.107.125-.503-.1-.824l-.208-.297-.534.272c-.293.15-.592.236-.663.192-.262-.162-.117-.444.306-.593l.436-.153-.318-.241c-.28-.213-.291-.252-.09-.33.126-.047.346-.087.49-.087.142 0 .59-.116.993-.258.604-.212.734-.224.734-.067 0 .206.112.235.736.192.378-.026.39-.013.191.22-.116.137-.222.444-.236.684-.023.391.012.436.345.44l.37.004-.334.274c-.709.579-.881.741-1.154 1.088-.155.198-.436.387-.623.42-.304.056-.346.012-.395-.403zm-11.83-8.087c.091-.418.08-.436-.22-.342-.606.19-1.053.237-1.053.112 0-.069.226-.181.502-.25.372-.091.514-.202.545-.425.034-.237-.023-.302-.268-.306-.248-.004-.204-.055.226-.256a5.164 5.164 0 011.02-.342c.424-.08.493-.054.56.207.06.226.148.279.367.222.16-.042.376-.043.482-.002.227.087-1.302 1.65-1.614 1.65-.105 0-.293.039-.418.087-.195.075-.213.026-.13-.355zm-26.286-6.466c-.517-.976-.982-2.011-.982-2.189 0-.254-.789-.242-1.13.016-.33.249-.668.252-.87.007-.127-.152-.097-.206.15-.277.825-.233 1.052-.374.978-.608-.1-.314.531-.533 1.54-.533.88 0 1.026.085.722.421-.203.224-.202.268.007.588.15.23.243.709.277 1.436.07 1.52-.229 2.013-.692 1.14zm-23.9-5.47c-.205-.383-.067-.66.328-.66.181 0 .486-.059.675-.13.38-.145.743-.768.536-.918-.232-.167-1.025-1.246-.962-1.31.204-.204.896-.273 1.248-.125.54.227.7.456.75 1.078.035.436.092.53.306.511.355-.031.742.19.742.427 0 .27-.717.61-1.403.667-.579.047-1.32.35-1.477.603-.144.233-.587.147-.743-.143zm12.065-6.637c0-.5-.052-.618-.33-.744-.246-.112-.427-.109-.726.015-.415.172-1.014.079-.881-.137.042-.068.24-.124.44-.124.246 0 .403-.096.494-.302.072-.165.361-.422.641-.57.481-.252.517-.254.643-.033.084.147.295.235.563.235.384 0 .432.044.458.416.048.683-.6 1.735-1.115 1.81-.136.02-.187-.133-.187-.566z" fill="#2d2530"/>
  <path d="M294.924 25.387h.449v1.603q.128 1.346.705 1.346 0-.257.192-.257 0 .705.449.705v.449q0 1.538-.449 1.538.256.77.256 2.949h.193l.256-2.692h.449v3.14q0 .898.448 2.949h.193q.897 0 .897-3.846v-.705h.449v.897q0 1.41-.193 3.397l.193 1.346q-.577 1.539-.898 3.59h-.192l.192.448q-.64.834-.64 1.603v.448q.192 0 .64-.705.449.257.705.257v.192q-2.05 1.09-2.05 2.692-.898 5.576-.898 9.678v.257h.256q1.795-.898 1.795-2.5v-.64h.192q.449 0 .449.64 2.243-2.18 2.243-5.384h.257q.448.064.448.449-.961 3.46-2.948 6.537v.45h.705l1.09-.257v-1.09h-.449v-.256q1.602-1.73 1.602-2.885-.256-.448-.256-.705h.256q.45 0 .705 2.244-1.153.577-1.153 1.794v.45h.192l2.5-1.54.256.45q1.987-1.154 2.692-1.154v.256q-4.038 2.115-4.038 2.436 0 .32-2.307 1.153 0 .513-3.141 3.59l-1.538 2.692h.192q1.346 0 3.14-3.782l.45-.256v.449q-1.026 2.692-1.347 2.692 0-.193-.192-.193 0 2.115-1.795 3.333-.256.705-.256 1.346 1.282-.192 4.038-4.23h.449v.192q-.705 1.474-1.795 2.949h.897q-2.628 1.41-2.692 2.243h.257l1.09-.256-2.885 1.858q.192 1.539.192 2.436v.449l1.154-.193v.449h-.449v.192q1.987.257 1.987.705v.193l-2.243-.449q-.449.256-.64.256v.449l.448-.256.192.448v.449l-1.09-.192v.192l.193.897q-.449.064-.449.449v.449h.449v-.449h.256l.449.256q0-.448 1.987-1.153.897-.705 1.794-2.244h1.154q1.795-1.41 1.795-1.987v-.705h.705v.257q.577 0 2.243-3.846.898 0 .898-1.154h.448q0 .705-1.794 2.949 0 2.371-4.103 5.191 0 .513-2.435 1.795-2.244 2.308-2.244 3.782l.45.256q.063-.449.448-.449h.64q-2.435 2.692-2.435 3.141h.641v.256l-.64.898h.191q.449-.257.705-.257 0 .32.641.705 0-.705.449-.705.256.45.256.705l1.539-.256q0 .385-4.487 2.692-.449.77-.449 1.346v.705q1.154-.705 1.795-.705-1.346 1.09-1.538 2.243h-.257v.45q.064.512.449.512h.256l.45-.256.191.448 1.603-.192h.192q.897.64 1.346.64.064-.448.449-.448v.257q1.41-.513 2.948-2.308h.256v.257q0 .64-3.204 3.14h1.794v.449h-1.794q0 .256-1.539 2.243 0 .193.641.705-.192.449-.192.641l.641.449q1.795-1.09 2.243-1.09-1.794 1.987-1.794 2.244l-.449-.257h-.449q-.128 1.603-.64 1.603 0-.449-.45-.449-.448.192-.704.192v.449q0 .449 2.05.897v.449l-1.602-.449q-1.09.257-1.09 1.154 0 .256 1.347 1.795v.256q-1.474 0-1.603.641l.449.256q-.192.257-.192 1.09h.448v.449h-.256q-.449-.193-.64-.193-.706 1.923-.706 4.68.449 6.794 1.154 9.23v8.332q0 3.845 3.333 3.845 12.37 1.026 12.37 1.987v.257h-.192q-14.486 0-42.047-.705l-.256-.449q0-1.09 4.294-1.09h1.538q9.038 0 10.576-.897l-.192-.449v-8.332q0-2.628-.256-5.384.256-1.026.256-3.59-.513-3.973-4.038-7.883-.449.192-.705.192l.256-.449v-.192q0-.513-3.205-1.795l-.448.193h-.449q0-.32-.897-.898l.448-.64v-.257q0-1.73-2.243-2.051h-.64v-.449h.191q2.564 0 3.59 2.949 0 .32 1.602.448.449-.192.641-.192v-.705q-.64 0-.64-.449l.448-.256q.897 1.154 1.154 1.154h.192q.449 0 .449-.449h-.641v-.705h.448q.705.961 1.795 1.154l.192.448q-.32 0-.897.449 0-.449-.449-.449-1.218 0-1.602.898h1.41q.064 1.153.64 1.153v-.705h.45q0 .705.705 1.154-.257.385-.257.641l1.795 2.5h.256l-.448-2.051q.192-.385.192-.898v-.192q-.641 0-.641-.256.192-.449.192-.641-.32 0-.897-.898v-.256h.256l.641.449v-.193q0-1.153-1.09-1.153v-.449h.642v-.449q-.641 0-.641-.256.192-.385.192-.641-3.461-3.846-9.87-3.846l-2.693.257v.897l-.897.192v-.448l.192-.45q-.32 0-.897-.896h.448q.45.256.705.256l.45-.705 1.089.256q1.602 0 3.14-.448 1.41.897 4.487 1.346l-.897-.898v-.448q0-.257.256-.257l-.256-.448v-.193h.448v1.09q.898 1.282 3.846 2.692.77-.449 1.346-.449v-1.794l-.448-.641q.256-1.539.256-2.5v-.192l-.897-.257q0 .257-.257.257 0-.577-.897-.705v-.45q.769 0 1.154-.191.384.192.897.192 0-.256.192-.641l-.448-.962q.448-.769.448-1.794 0-2.18-3.781-3.333 0-1.154-3.205-1.154h-.641q-2.051 0-3.846.449-.705-1.346-1.538-1.539 0 .45-.449.45h-.449l.193-1.603q-.193 0-.193-.193h.193l2.5 2.244q.256 0 2.435-.449v-.256l-.192-.449h.192l.897.705h1.603q.449 0 .64-1.602-.384 0-2.884-2.244-.769 0-3.14-2.05 0 .256-.257.256 0-.128-1.09-1.154.065 0 .898-.192 0 .384 2.692 2.243h.192V76.92l.257-.449q.448.193.64.193 0 1.153-.448 1.153 1.923 2.692 3.397 2.692.641-.961.641-2.243h-.64v-.449h1.089q.705-.256.705-1.346v-.256q-.833 0-1.346-.449h-.449v.449h-.256q-.449 0-.449-.449.32 0 .705-.64l2.244.448v-.449q0-.576-2.692-1.153v-.449h.192q1.218.705 2.756.705 0-.128.897-1.154-.64 0-2.756-.897-.384.256-.64.256-.321-1.09-3.59-1.346-.898.32-.898.641l-.448-.192h-.257q-1.794 1.09-1.794 2.692h-.449v-1.154l1.346-1.538v-.256q-.256 0-2.436.897v-.449q2.052-.897 2.885-.897.256 0 .256.256 4.487-.64 4.487-1.346 0-.384.449-.961v-1.09q-3.141-3.781-3.398-3.845h-.897q-1.602.448-1.795.448 0-.128 1.603-1.09-.257-.384-.257-.897l.705.449q.385-.256.898-.256.64 1.73 3.333 3.589.961 2.564 4.743 6.538v-.449l-1.987-3.14v-.257q.192 0 2.243 2.5v-.449q0-6.153-11.024-15.96l-2.051-2.5v-.64h.448q.577 2.243 4.744 5.383 3.204 2.244 6.28 7.18 1.283 2.499 1.603 2.499.449-4.038.449-6.09-.77-4.294-2.243-4.294v-.192q.064-.449.448-.449 0 .193.193.193v-.193q0-.897-1.987-2.243l.192-.449q-.577-.961-4.935-5.384v-.448q.576 0 6.28 6.281 1.603 1.41 2.052 2.884h.192q0-1.41.257-2.243-.45-5.128-1.346-10.32.192-1.217.192-2.5 0-.32-2.692-3.588l-.705-.898h.513l2.692 2.949h.192v-.449q0-.449-.449-.449l.257-1.153q0-1.09-2.949-6.538v-.192h.449q.577 2.371 2.243 4.038.705-.257.705-.45l-.256-.896.256-.45q-1.153-2.627-1.153-3.588h.448q1.474 4.679 2.051 4.679v-.898h.449v1.603h.192q.32 0 .705-1.346l.449-.257-.256 2.692v.513l.256 2.243h.192l.257-1.602h.448q-.897 3.525-.897 4.487 1.538-1.154 1.538-2.244h.257l.448.257 2.949-5v.705l.448-.256h.193v.256q-1.475 2.5-1.795 2.5-.449 0-.897 1.987-2.949 2.436-2.949 4.038 0 .256.257.256l-.257.449v.449h.257q0-.641 1.538-1.603 0-.32.897-.897l.257.449q-2.949 2.307-2.949 3.845-.192 1.218-.192 2.5v.192h.192q1.41-2.756 7.692-6.986l-.257-1.09v-.256h.898v.449h.448l.257-1.09v-.256q0-.77-.257-1.09l.257-.897q-.257-3.013-.705-4.743.256-1.987.256-2.5-.705-4.295-.705-5.128zm-15.511 3.14h.192q.577 0 .705 1.795-.64 0-.897-1.794zm7.884 2.95h.448v.64h-.448zm-2.244.191h.449v.898h-.449zm-1.153 2.949l.256.449v.448l-.449.641v.257q0 1.153.641 2.05 0 .962-.192 2.885.192 2.756.64 4.935.45 0 .45-.448v-1.09q.64 0 .897-1.346-.833-8.781-1.987-8.781zm11.921 8.076q0 .449-.192.449-.449-.193-.705-.193 0 .962-3.14 2.244-5 4.807-5.192 6.537 0 3.526 1.346 5.577 0 .705 1.794 3.653v.449q-.64-.385-2.692-4.295h-.192q-.641 3.398-1.154 3.398l.257.448q-.705 2.564-.705 8.333v2.692q.448.384.705 3.14 2.692.577 2.692 1.539 0 2.628.897 2.692h.192q0-.898.257-1.795-.257-2.307-1.603-6.474l.257-.448q-.449-.77-.449-1.346h.449q.192 2.243 1.09 2.243v.192q0 2.308.897 5.833.769 0 1.602-6.922v-1.346q0-2.308-2.051-2.308v-.448h.256l1.154.256v-1.154l-.449-.64q.193 0 .193-.257-.898 0-.898-2.436h.193q-1.795-4.358-1.795-4.743l.256-1.602h.449l.64 3.205h.257v-.45h.449v1.09l.256 1.347-.256.448q.897 2.692 1.602 2.692v-1.987q-.897 0-.897-.448.897-.77 1.09-2.244h-.641q0-.32 1.09-.897l-.193-.449q-.256-4.871-.256-6.986h.256l.449.192-.257 1.154q.898 1.218.898 1.987h.448q0-.128.257-1.346 0-.385-.705-1.987 0-.257.256-.257l-.256-1.09v-1.794h.448q0 .641.705.641l-.256 1.154v.64h.256q1.09-2.307 1.09-3.332l-.192-1.154.448-.256q0-.385-.448-1.539l.192-1.346zm-20.446 2.692h.448v.705q0 .32-.705.641l.257.513v.192h-.449v-1.154q.449 0 .449-.897zm26.792 1.602h.192v.257q-.449.705-.449 1.09h-.448q.192-1.347.705-1.347zm-7.884.257h.449v.192h-.449zm4.487 3.14h.448l-.256 2.244h-.449v-.705zm-9.935 3.59h.449v1.538q-.45 0-.898.256v-.256zm-7.82 2.692h.641v.448h-.192q-.449 0-.449-.448zm15.704 3.846h.256q1.538-1.154 1.538-2.5v-1.154h-.192q-.833 0-1.602 3.654zm-3.333 2.243q.448.897.448 1.346h.193q.897-2.051.897-3.59l-.192-1.153q-.32 0-1.346 3.397zm-22.306-2.5h.45q1.345.513 1.345.898h-.449q-1.346-.513-1.346-.898zm36.47 3.14h.45v.706q0 .32-.706.64zm-6.986 1.796h.193q0 .448-.449.448h-.192q.064-.448.448-.448zm-21.408 4.294q0 .385-.448.897v.449q0 .64 2.307.897h.449q-1.73-2.179-2.051-2.243zm2.757 5.833v.256l.192 1.09q-.897 0-.897.705.256.384.256.897v.192q-1.859 0-1.859 2.756h.449v.45h-.449v.448q.385 1.154 4.295 3.333.448-.192.705-.192 0-6.09-1.154-6.09h-.192v-.448h.897v-.705q-.449 0-.449-.193 0-.256.193-.256-.193-2.243-.641-2.243zm4.038 2.692v.256l.64 1.09q-.448.577-.448.961l1.602 2.692q.385.192.898.192h.64q.257 0 .257-.192l.449.192h.192v-1.346q0-.32-.641-.64-.449.192-.705.192l-.192-.449v-.192h.897q-1.474-1.859-3.397-2.756zm5.832 4.102q.257.384.257.64h.192q.961 0 1.154-3.845v-.449q0-.448-.449-.448-1.025 0-1.154 4.102zm7.179-3.846h.256q0 .449-.448.449h-.257q.064-.449.45-.449zm6.346 4.935v.45h-.45q.065-.45.45-.45zm-.706.705q0 .641-3.397 1.795 0-.448 3.397-1.795zm-18.01.641v1.154h.897l1.154.192v.45l-1.154-.193h-.897v.449l.448.64v.706h-.448v3.397q0 .64.897.64.449-.192.705-.192.385.449.64 2.436h.45v-.192q0-.898-.45-2.949 1.155-.513 1.155-2.243l-.257-.897.257-.45-.257-.448q.257-1.218.257-1.794-1.09-.898-2.692-.898-.449.192-.705.192zm12.819 1.795q-.898 1.154-1.987 1.154h-.257v-.449zm-7.82 4.55l-.256 1.09.256 1.603q-.577 0-.705 1.538.705 2.051 1.602 2.051l.449-1.602v-.192q0-.834-.256-2.051.256-.385.256-.898h-.705v-.448l.256-.45zm-11.537.642h1.41v.449h-1.41zm-.898.256v.449q-1.09 0-1.09.449l.45.64v.257q-.834-.897-3.141-1.154v-.192l.448-.256h.641zm22.498 0h.256q.32 0 .705.898l-.448.192q-.513 0-.513-.449zm-15.062 2.692v1.795l.448.64q0 .45-.448 1.603l.256 1.346h.64v-.897h.45q0 .705.256 1.538.577 0 .897-3.59l-.256-.448q.256-.384.256-.897-.448-1.346-1.794-1.346-.449.256-.705.256zm10.383-.256v.705h.192q.449 0 .449-.449l-.449-.256zm6.987 0q-1.282 1.346-2.5 1.346 1.282-1.346 2.5-1.346zm-13.076 3.397q-.449 1.154-.449 1.795 0 1.538 2.244 3.589v.256h.256q0-1.666.449-2.756l-.449-.192q0 .449-.449.449l-.256-.449.449-.705v-.641q-1.026 0-1.795-1.346zm-2.051 9.87q-.449.77-.449 1.347v1.153h.705q.641 0 .641-2.243-.384-.256-.897-.256zm-.192 3.398q0 .705-.257 1.538 1.154 15.704 1.154 18.46.833.448 1.795.448h.897q1.026 0 1.346-6.73 0-9.678-3.397-12.178-.705-1.538-1.09-1.538z" style="fill:#2d2530;fill-opacity:1;stroke-width:3.2817" fill="#2d2530" stroke-width="3.282"/>
  <path d="M320 115.223s-27.974 4.454-58.702 20.637c-23.398 12.322-39.955 41.589-96.302 42.354C33.568 180-.004 180-.004 180h320z" fill="#2d2530"/>
  <g>
    <path d="M176.241 81.078l.002.002h-37.745a4.16 4.16 0 00-4.169 4.169v10.63a4.16 4.16 0 004.169 4.168h39.54a4.16 4.16 0 004.17-4.169v-6.744c.142-3.708 4.307-8.056 4.307-8.056z" fill="#483737"/>
    <path d="M175.397 79.953l.002.002h-37.745a4.16 4.16 0 00-4.169 4.169v10.63a4.16 4.16 0 004.17 4.168h39.54a4.16 4.16 0 004.169-4.169V88.01c.142-3.708 4.307-8.056 4.307-8.056z" fill="#dddad5"/>
    <g aria-label="i-am-laffer" fill="#6f6f91">
      <path d="M151.427 88.29h-.826v-.852h.826zm-.007 4.166h-.812v-3.644h.812zM153.732 90.66h-1.72v-.755h1.72zM156.658 92.456h-.79v-.126l-.563.086q-.368.055-.559.055-.451 0-.451-.444v-1.313q0-.451.465-.451h1.115v-.837h-.79v.52h-.747v-.683q0-.45.466-.45h1.396q.458 0 .458.45zm-.783-.657v-.977h-.79v1.006zM161.269 92.456h-.82v-2.955l-.775.015v2.94h-.822v-2.955l-.776.015v2.94h-.826v-3.644h.826v.134l.574-.094q.35-.054.58-.054.285 0 .368.162.303-.047.606-.097.4-.065.614-.065.45 0 .45.444zM163.56 90.66h-1.721v-.755h1.72zM164.97 92.456h-.811V86.81h.811zM167.932 92.456h-.79v-.126l-.563.086q-.368.055-.559.055-.45 0-.45-.444v-1.313q0-.451.465-.451h1.114v-.837h-.79v.52h-.747v-.683q0-.45.466-.45h1.396q.458 0 .458.45zm-.783-.657v-.977h-.79v1.006zM170.126 87.528h-.606v1.284h.526v.704h-.526v2.94h-.82v-2.94h-.375v-.704h.376v-1.551q0-.451.458-.451h.967zM172.03 87.528h-.606v1.284h.527v.704h-.527v2.94h-.818v-2.94h-.376v-.704h.376v-1.551q0-.451.458-.451h.967zM174.69 92.005q0 .451-.466.451h-1.425q-.465 0-.465-.45v-2.743q0-.45.465-.45h1.425q.465 0 .465.45v1.339l-.227.227h-1.338v1.021h.775v-.606h.79zm-.79-1.714v-.873h-.776v.873zM177.586 90.335h-.819V89.5l-.653.015v2.94h-.826v-3.644h.826v.134l.51-.094q.306-.054.511-.054.451 0 .451.444z" />
    </g>
    <path d="M138.529 85.046c-.126 0-.163.07-.263.492-.076.321-.082.392-.069.783.014.345.032.484.096.7.044.148.08.294.08.324 0 .03-.049.102-.11.16a2.53 2.53 0 00-.454.696c-.219.522-.295 1.02-.317 2.07-.015.691-.01.853.034 1.07.16.786.43 1.31.94 1.822.563.564 1.299.925 2.274 1.117.228.045 3.527.046 3.763 0 .56-.112.811-.194 1.261-.414 1.04-.507 1.693-1.331 1.905-2.403.068-.343.092-1.199.048-1.731-.089-1.09-.266-1.638-.692-2.136-.093-.11-.17-.228-.17-.263s.033-.164.074-.285c.104-.307.152-.67.13-.986-.021-.296-.147-.831-.223-.947-.044-.067-.064-.074-.176-.056-.452.073-1.021.48-1.478 1.057-.098.124-.199.233-.225.243-.026.01-.125-.024-.22-.076-.382-.207-.828-.282-1.831-.305-1.223-.03-1.894.048-2.336.267a1.523 1.523 0 01-.293.122c-.027 0-.106-.08-.178-.177-.411-.562-1.21-1.144-1.57-1.144z" fill="#6f6f91"/>
  </g>
</svg>
