<svg xmlns="http://www.w3.org/2000/svg" xmlns:xlink="http://www.w3.org/1999/xlink" width="100%" height="100%" viewBox="0 0 320 180" version="1.0">
  <defs>
    <linearGradient id="e">
      <stop offset="0" stop-color="#9393ac"/>
      <stop offset="1" stop-color="#f95"/>
    </linearGradient>
    <linearGradient id="d">
      <stop offset="0" stop-color="#fff6d5"/>
      <stop offset="1" stop-color="#fff6d5" stop-opacity="0"/>
    </linearGradient>
    <linearGradient id="c">
      <stop offset="0" stop-color="#fff6d5"/>
      <stop offset="1" stop-color="#fff6d5" stop-opacity="0"/>
    </linearGradient>
    <linearGradient id="b">
      <stop offset="0" stop-color="#fff6d5"/>
      <stop offset="1" stop-color="#fff6d5" stop-opacity="0"/>
    </linearGradient>
    <linearGradient id="a">
      <stop offset="0" stop-color="#fff6d5"/>
      <stop offset="1" stop-color="#fff6d5" stop-opacity="0"/>
    </linearGradient>
    <linearGradient xlink:href="#a" id="g" x1="71.786" y1="25.357" x2="71.786" y2="37.857" gradientUnits="userSpaceOnUse" gradientTransform="translate(-16.429 42.5)"/>
    <linearGradient xlink:href="#b" id="h" x1="139.286" y1="41.071" x2="139.821" y2="54.643" gradientUnits="userSpaceOnUse" gradientTransform="translate(-10 -3.214)"/>
    <linearGradient xlink:href="#c" id="i" x1="236.071" y1="50" x2="236.429" y2="67.5" gradientUnits="userSpaceOnUse" gradientTransform="translate(23.571 18.929)"/>
    <linearGradient xlink:href="#d" id="j" x1="235.357" y1="21.786" x2="235.864" y2="44.237" gradientUnits="userSpaceOnUse" gradientTransform="matrix(.8589 0 0 .8589 25.471 2.492)"/>
    <linearGradient xlink:href="#d" id="k" x1="71.786" y1="25.357" x2="71.786" y2="37.857" gradientUnits="userSpaceOnUse" gradientTransform="matrix(-.68153 0 0 .68153 97.17 7.686)"/>
    <linearGradient xlink:href="#e" id="f" x1="201.786" y1="0" x2="201.786" y2="158.929" gradientUnits="userSpaceOnUse"/>
  </defs>
  <path fill="url(#f)" d="M0 0h320v180H0z"/>
  <path fill="#6f6f91" d="M0 107.857h320V180H0z"/>
  <path d="M156.857 64.686a42.857 42.857 0 00-42.698 42.858 42.857 42.857 0 00.002.357h85.711a42.857 42.857 0 00.002-.357 42.857 42.857 0 00-42.857-42.858 42.857 42.857 0 00-.16 0z" fill="#fff6d5"/>
  <path d="M199.872 107.901c-.348 2.1-.69 4.168-1.717 5.799-1.027 1.63-2.702 2.745-4.128 3.414-1.426.67-2.617.908-4.164 1.145-1.547.238-3.452.476-4.459 1.136-1.007.66-1.126 1.73-.53 3.095.597 1.364 1.906 3.03.412 4.281-1.495 1.25-5.78 2.084-7.977 3.338-2.197 1.255-2.316 2.921-2.316 4.468.001 1.547.12 2.975-1.85 3.685-1.97.71-6.017.71-7.916 1.547-1.899.838-1.66 2.505-2.56 3.453-.899.95-2.923 1.187-3.93 1.306a16.721 16.721 0 01-3.441 0c-1.006-.119-3.03-.357-3.93-1.306-.898-.948-.66-2.615-2.56-3.453-1.898-.837-5.946-.837-7.916-1.547-1.97-.71-1.85-2.138-1.85-3.685.001-1.547-.118-3.213-2.315-4.468-2.197-1.254-6.483-2.087-7.977-3.338-1.494-1.25-.185-2.917.412-4.281.596-1.364.477-2.436-.53-3.095-1.007-.66-2.912-.898-4.46-1.136-1.547-.237-2.737-.475-4.081-1.311-1.344-.836-2.851-2.288-3.876-3.916-1.025-1.627-1.535-3.368-2.052-5.13h85.711z" opacity=".361" fill="#f9f9f9"/>
  <g fill="none" stroke="#f9f9f9" stroke-linecap="round" opacity=".429" stroke-width=".9">
    <path d="M22.857 148.929h11.786M37.5 157.5h18.929M51.071 142.857h13.572M33.929 140.714H42.5M73.571 152.5H87.5M90.357 133.929h10M101.786 127.857h11.785M111.429 139.643h13.928M10.714 121.071h12.857M27.143 129.286H37.5M35.357 121.429h8.572M68.571 122.5H75M75.714 118.571h8.215M106.071 168.571h7.858M114.643 163.214h8.214M129.643 172.5h7.857M157.857 160h9.643M168.214 154.643h7.857M175.714 167.857h10M186.786 159.286h11.428M215 124.643h11.071M225.357 134.643h10M230.357 116.429h9.286M238.929 126.786h8.928M250.357 137.857h7.143M263.929 156.429h7.857M273.929 165.714h8.571M276.429 148.929h8.214M288.929 158.214h9.642M302.857 163.571h8.572M303.571 153.571H310M222.143 161.786H232.5M234.643 167.143h11.428M58.571 171.786h10M73.571 166.071h11.786M187.143 138.929h7.5M196.071 145.357h7.858M278.929 122.857h7.142M291.786 128.571h7.5M297.857 117.143h6.429M8.929 168.214h8.928M19.643 172.857h7.143" opacity=".297"/>
  </g>
  <path d="M24.173 77.382c-1.076-1.669 1.662-3.812 3.57-4.883 1.91-1.07 2.981-1.07 4.47-1.01 1.488.06 3.393.178 5.947-1.37 2.554-1.548 5.769-4.762 8.631-5.532 2.863-.77 5.363.897 6.729 2.09 1.365 1.192 1.603 1.906 2.262 2.558.658.653 1.73 1.248 3.572 1.124 1.843-.123 4.462-.956 6.487-1.372 2.026-.416 3.455-.416 5.002.542 1.547.958 3.214 2.863 5.418 4.587 2.203 1.724 4.941 3.272 6.066 4.28 1.125 1.009.65 1.485-.063 1.96-.712.475-1.665.952-3.983.953-2.318.002-6.008-.474-9.641-.178-3.634.296-7.205 1.367-9.765 2.2-2.56.834-4.108 1.429-6.128 1.194-2.02-.234-4.52-1.306-5.892-2.017-1.371-.71-1.61-1.068-2.38-1.488-.772-.42-2.082-.897-3.751-.84-1.67.056-3.694.651-7.143.356-3.45-.295-8.331-1.486-9.408-3.154z" fill="url(#g)"/>
  <path d="M93.453 46.91c1.31-1.554 3.929-3.697 5.66-4.768 1.73-1.07 2.564-1.07 3.094-1.248.53-.177.768-.535 1.245-1.012.478-.478 1.192-1.073 2.024-2.202.832-1.13 1.784-2.796 2.564-3.63.78-.836 1.375-.836 3.042.001 1.668.837 4.406 2.504 7.738 3.095 3.332.591 7.26.115 10.296.954 3.037.839 5.18 2.981 7.918 3.988 2.738 1.007 6.07.888 7.916 1.012s2.203.481 2.68.898c.476.416 1.071.892 1.608 1.186.536.295 1.012.414 1.547.715.536.3 1.13.776 1.784 1.552.653.775 1.367 1.846 2.262 2.737s1.966 1.605 2.496 2.32c.53.716.53 1.43-1.132 1.96-1.662.531-4.996.888-7.554 1.008-2.559.12-4.345 0-5.539.119-1.194.118-1.79.475-2.262.654-.473.18-.83.18-1.786.595-.955.416-2.503 1.25-4.345 1.608-1.841.358-3.984.24-5.175.065-1.19-.174-1.429-.412-1.905-.536-.476-.124-1.19-.124-2.201-.419-1.011-.295-2.32-.89-4.882-1.071-2.56-.182-6.37.056-9.226-.475-2.856-.532-4.76-1.841-7.797-2.916-3.035-1.074-7.202-1.907-9.291-2.796-2.09-.89-2.09-1.842-.78-3.395z" fill="url(#h)"/>
  <path d="M232.09 76.789c1.127-.362 2.913-1.434 5.357-2.028 2.444-.595 5.539-.714 7.62-.953 2.082-.239 3.153-.596 4.103-1.13.95-.536 1.783-1.25 2.618-1.846.834-.596 1.668-1.072 2.141-1.485.474-.412.593-.77 1.07-1.25.48-.48 1.312-1.075 2.27-1.251.957-.177 2.028.061 3.218.839 1.19.777 2.5 2.087 5.654 2.916 3.155.828 8.155 1.185 11.012 1.364 2.857.178 3.571.178 4.285.66.713.481 1.428 1.434 2.203 1.965.775.53 1.608.65 2.323.89.714.241 1.31.598 2.439.594 1.128-.004 2.795-.361 4.523-.24 1.729.122 3.515.718 4.824 1.255 1.31.537 2.143 1.013 3.155 1.428 1.012.415 2.202.772 2.974 1.193.772.42 1.13.896 1.548 1.251.418.355.895.593 1.248 1.012.354.42.592 1.015 1.37 1.667.776.652 2.086 1.366 2.735 1.963s.649 1.074-1.074 1.723c-1.723.648-5.175 1.482-7.732 1.486-2.557.004-4.224-.83-5.593-1.367-1.37-.538-2.44-.776-3.452-1.072-1.012-.297-1.965-.654-5.36-.24-3.395.413-9.228 1.604-13.095 2.081-3.868.478-5.772.24-6.903.005-1.13-.235-1.488-.473-1.846-.596-.358-.123-.715-.123-1.37-.535-.654-.412-1.606-1.245-2.263-1.608-.657-.363-1.015-.244-2.442-.005-1.427.238-3.927.595-7.557.537-3.63-.058-8.392-.535-12.857-.714-4.464-.18-8.631-.06-11.19-.236-2.558-.175-3.51-.651-4.939-1.129a30.03 30.03 0 00-5.06-1.193c-1.727-.24-3.275-.24-4.347-.533-1.07-.292-1.666-.887-2.083-1.19-.417-.303-.655-.303-.302-.72.352-.417 1.305-1.25 2.202-1.666.898-.417 1.731-.417 3.457-.596 1.725-.179 4.344-.536 6.072-.654 1.727-.117 2.56.002 3.57-.12 1.01-.12 2.2-.477 3.036-.472.835.005 1.312.362 2.438 0z" fill="url(#i)"/>
  <path d="M197.817 34.65c1.173-1.175 2.911-3.323 4.296-4.448 1.384-1.126 2.407-1.228 3.993-1.022 1.586.206 3.733.717 5.159.207 1.425-.51 2.141-2.045 2.755-3.12.614-1.075 1.125-1.688 1.381-2.247.256-.558.256-1.07.92-2.045.665-.975 1.995-2.407 4.25-2.097 2.254.31 5.424 2.355 7.568 3.169 2.145.813 3.27.404 3.88.05.61-.354.713-.661 2.046-1.073 1.333-.413 3.89-.924 6.09-.408 2.2.516 4.04 2.05 4.904 3.89.864 1.84.762 3.988 1.278 5.419.517 1.43 1.642 2.146 2.357 2.5.715.356 1.021.356 1.89 1.639.867 1.283 2.298 3.84 3.063 5.577.764 1.738.867 2.658.764 3.267-.103.609-.41.916-1.223.917-.813 0-2.142-.306-3.83-.46-1.688-.155-3.733-.155-5.214-.357-1.482-.202-2.402-.611-4.042-.154-1.64.457-3.992 1.786-6.137 2.706a29.046 29.046 0 01-5.57 1.739c-1.482.307-2.505.41-3.935-.048-1.43-.457-3.27-1.479-4.806-2.704-1.535-1.225-2.762-2.657-5.267-3.275-2.505-.619-6.288-.414-9.152-.108-2.864.306-4.806.715-6.185.617-1.38-.097-2.197-.711-2.713-1.886-.515-1.174-.72-2.913-.513-3.89.206-.977.82-1.181 1.993-2.356z" fill="url(#j)"/>
  <path d="M0 107.857V180h320v-72.143c-49.988 44.284-88.139 60.662-160 61.889-57.104-4.89-124.803-11.833-160-61.889z" fill="#3e3748"/>
  <path d="M87.743 97.205l.53.916.347-.14-.53-.915zM71.89 85.962l.866-1.356.368.215-.866 1.356zM28.4 132.811q-1.156-19.01 2.432-45.775.554-4.537 1.89-13.744l.05.827q.144 2.361 1 2.783.17-1.077.106-2.14l-.029-.472q4.443 12.648 13.876 19.66l.018-1.66q-1.15-5.264-2.95-9.54 1.574-1.399 4.479-4.301-.594 1.932-.544 2.759l.022.354q1.36-1.03 5.201-4.109-.335 2.272-.343 2.154l.022.355q.805-.405 1.391-2.455.161.701.698 1.735.726-1.703.662-2.766.129 2.125.555 3.285 1.76-2.24 2.114-2.262l.118-.007 1.3-.08q-.695.28-.666.752.014.236.522.798.39.569.398.687-.111.125-.215.369l.014.236q1.345-1.267 2.476-2.166.28.695.83 1.965l.59-.036q.326-.494.763-1.113l.708-.043q.272.576.913 1.366.554-.626.909-.647.826-.05 2.748 2.321-3.918-.117-4.272-.095-2.834.172-6.233 2.749-4.085 2.974-3.877 6.398.064 1.063.977 2.43.372-1.683.908-4.56.959.18 1.754 1.553 1.191 2.06 1.825 2.734l-.234-5.793q1.564.379 1.99 1.538 1.102 2.54 1.625 3.338.643-5.017.607-5.607l-.029-.472q1.135 1.116 2.996 4.44.018-1.66.16-3.21.018-1.66 1.03-2.551.62.436 1.908 2.135-13.575 20.38-19.695 30.825-10.087 17.324-14.382 30.503-5.404-3.109-7.851-4.382-.72-2.09-1.265-11.063zm12.622-63.342q1.739-2.594 2.33-2.63-.355.022 1.466.74.083-.597.365-1.8l.709-.042q.272.576.89 1.012l.591-.036q.318-.612.261-1.556l-.007-.119.826-.05q.752.666 2.337 1.399-.132-.23-.147-.465-.021-.355.304-.848.319-.612.311-.73l-.39-.57.945-.057q.619.437 2.373 1.99.178-.96.078-2.613l-.05-.826q1.077.171 1.76 1.67.677 1.382 1.754 1.553.11-.125.096-.361l-.007-.118q-.258-.34-.956-2.076 1.858 1.31 5.322 3.706-.666.752-.651.988 1.395-.44 3.839-1.181-.208.486-.97 1.6-.762 1.112-.976 1.48 1.18-.071 3.868-.708-.444.5-.859 1.474-.415.973-.755 1.23.723.194 1.55.144l.708-.043q-.637 1.223-.58 2.168.065 1.063.892 1.012.236-.014 1.825-1.177l.375.333q.133.229.258.34-.318.611-.844 1.71.347-.14.583-.154 3.07-.187 3.278 3.238l.058.944q-5.358-4.296-14.239-6.126-2.14-.107-4.64-.31-1.378-1.22-3.876-3.32-2.233-1.643-5.893-1.42-1.89.115-4.112.605zm20.849-6.007q.419 1.04 1.768 1.788-.111.126-.451.383-.458.265-.569.39-.741-2.443-.748-2.561zM48.967 75.386q.88-1.12 1.796-1.65l.057.945q-.923.411-1.853.705zm-12.395-1.143q1.02-.773 2.615-1.818.752.666.802 1.492.015.236-.075.716-.096.361-.09.48.015.235.14.346 1.163-2.322 2.175-3.213 1.357.865 1.479 2.873l.021.354.022.354q.064 1.063.343 1.757.537-2.877 2.361-4.055.029.473.337 1.64.3 1.047.308 1.166.007.118-1.406 2.218-1.538 1.99-1.606 2.824-.816-1.728-3.203-3.954-2.394-2.343-4.223-3.18zM7.21 162.423l42.979-2.613q-1.317-2.171-8.575-8.485 6.351-20.296 25.345-50.96-.378 5.474-.407 5.002l.1 1.653q6.734-6.216 11.511-21.202.183 1.055.645 2.805-.137-2.243 1.065-5.872.132.23.161.702.043.708-.003 1.896-.172 1.077-.164 1.195.071 1.18.962 2.193.09-.48.394-1.327.934 1.72 1.092 4.318l.13 2.126q-.033 1.424.01 2.132.137 2.243.82 3.743.29-1.085.962-1.718.28.694.727 2.207.33 1.521.609 2.215.79-.64 1.51-2.462.593-1.932.521-3.113-.014-.236-.58-1.742-.683-1.5-.698-1.735l-.05-.827 1.99 1.538q-2.921-5.155-2.95-5.628-.014-.236.816-2.182.822-2.065 1.001-3.024 3.335.271 5.565 3.81l-.03-.473q-.05-.826.15-1.43 1.422 1.927 3.577 6.181.096-.361.393-1.327.297-.966.386-1.446.744.548 1.686 2.386.558 1.389 1.235 2.77l-.223-3.66q-.115-1.89-3.039-5.149-2.562-3.162-4.641-4.221-3.052-1.474-8.126-3.062 3.846-1.063 3.137-1.02.827-.05 1.46.622-.168-.819-1.002-.887-.951-.06-1.792-.246.88-1.12 2.178-1.2 1.063-.064 3.607.848 1.947.83 2.44 1.155l-.02-.354-.051-.827q.73.312 2.866 2.315.319-.612.809-2.3 1.084.289 1.693 2.503.533-.98.497-1.57-.13-2.126-4.37-3.646-3.392-1.216-5.045-1.115-2.48.15-6.047 1.908l.14-3.564q-.037-.59.554-.626.354-.021.715.075l.244.104-.036-.59q-.14-.348-.154-.584-.015-.236.082-.597l.354-.022q.945-.057 1.077.172l.709-.043.11-.126q-.043-.708-.558-1.388.318-.612.909-.648.236-.014 1.313.158.952.06 1.424.032-.834-.068-.87-.659-.007-.118.09-.48.09-.479.075-.715-.029-.472-.744-.547.68-.515 1.388-.559l2.515.44q-.257-.34-.787-1.256-.655-1.026-.92-1.484.333-.376.923-.412.354-.022 1.35.748.987.65 1.355.865l.945-.057q-.007-.118-1.76-1.67 2.243-.137 6.662.424-.398-.687-2.27-2.233.355-.021 1.203.283.723.193 1.077.171 1.786.129 5.045 1.116-.712-1.972-3.16-3.245-2.573-1.384-4.816-1.248-5.904.36-9.585 4.138-7.473 7.684-9.519 13.023-.419-1.042-.505-2.458l-.05-.827-.05-.827q-.144-2.361-2.548-2.926.93-.293 1.52-.33.945-.057 1.682.372-.258-.34-1.746-1.434-1.12-.88-1.17-1.707-.008-.118.346-.14-.59.037 2.058.705-.05-.826-1.407-1.692-1.356-.865-1.678-2.268-.884-.894-2.587-1.62l.383.45-.355.022q-1.653.1-2.419-.801 3.512 9.03 3.706 12.218.144 2.362-.836 5.74-.759-.784-1.464-2.637-.265-.458-1.35-4.659-.91-3.263-1.382-3.234l-.458.265q-.712-1.971-1.9-5.929.035.59-.187.841-2.934-1.48-3.085-3.96-.325.494-.615 1.578l-3.346-2.404q-.028-.472.792 3.27-1.084-.29-3.858-1.069 1.385 1.338 1.575 2.512-2.05-.587-3.821-.479-3.779.23-9.406 3.179-5.281 2.81-7.728 5.447-.125-.11-.133-.229-.25-4.132 2.465-4.297.354-.022.716.075l.361.096q-1.127-.998-1.163-1.588-.043-.709.665-.752-.472.029 2.058.705.783-.759.769-.995-.05-.827-1.074-2.068.583-.154 1.41-.204l.59-.036q-.426-1.16-1.693-2.505 1.181-.071 4.036.11-2.52-2.453-2.54-2.808l.354-.021q-.237.014 3.481.736-.182-1.055-1.642-1.678-2.08-1.058-2.323-1.162.694-.28 1.875-.351l.472-.029q-.132-.229-.146-.465l-.008-.118q-.014-.236.394-1.327.744.547 1.216.518l1.3-.079-.384-.45q.548-.745 1.753-2.359-.576.272-1.048.3-.473.03-.834-.067l.118-.007q.59-.036 1.345-1.267 1.191-1.85 1.524-2.226-2.333.616-3.7 1.529l-.028-.473q-.029-.472.179-.959.2-.604.193-.722l-.072-1.181q-.998 1.127-3.03 2.791-.544-1.152-.823-1.846-.04 1.306-.35 2.036-.408 1.092-1.857 2.602-.59.036-.634-.673-.343 2.154-1.272 6.359-.126-.111-.258-.34-.14-.347-.265-.458-.511 1.335-1.062 3.975-.317 4.523-1.695 7.214-1.227-2.651-1.3-3.832-.013-.236.069-.834l-.058-.944q-.222-3.66 1.962-12.563-1.248.905-2.296 1.206-.126-.11-.133-.229l-.014-.236q-1.027.655-2.35 2.276.125.11.139.347-.104.243-.097.361-.54.863-1.677 1.643-.687.397-.63 1.342.118-.007.923-.412.798-.522 1.152-.544.118-.007.244.104-2.004 2.136-2.862 3.61l1.04-.418 2.252-.018q-2.305 1.088-2.125 4.04l.043.708.036.59q.064 1.063-.129 1.786l-.118.007q-3.804-6.05-9.147-10.11-6.213-4.718-11.526-4.395-2.007.122-4.075 1.196-2.748 1.589-3.549 4.008 2.437-.86 6.74-2.188-.546.745-1.523 2.226.82-.168 6.34-.978-.45.383-1.567 1.518l.966.296q2.136-1.907 2.608-1.936.473-.029.849.304l-.623 1.46q-.533.98-.74 1.467 1.617-.69 2.09-.72l1.18-.071.376.333-.319.612.008.118.021.354q.133.229.14.347.043.708-.519 1.216 2.09-.72 2.68-.755.236-.014.361.097.126.11.244.103l.014.236q.022.355-.29 1.085l.05.826q1.507-.565 1.743-.58.709-.043.759.784.043.708-.297.966l.236-.015.354-.021.473-.029q.826-.05.89 1.013.015.236-.074.715l.043.709q.057.944.544 1.152-5.26-.747-6.087-.697-1.653.1-5.109 1.733-4.143 2.03-4.028 3.919l.802 1.491q.025-1.542.919-2.426l.59-.035q.008.118.838 2.082 1.663-1.879 2.572-2.527.125.111.133.23-.022-.355-.083.597 4.122-2.384 5.539-2.47 1.89-.115 2.544.912-.444.5-1.152.544l-.236.014q-.709.043-1.152.544 1.034-.537 1.152-.544.236-.014 1.564.38 1.32.274 2.036.35-4.992 1.725-9.16 5.297-4.936 4.566-5.218 9.68l.437 3.291q.275-1.32.662-2.766.26-1.556 1.362-2.927.412.923 1.11 2.658 1.155-2.44 2.993-7.292.265.458.337 1.638l.043.709q.283-1.202 1.864-2.484 1.581-1.28 2.977-1.721 2.47 5.538 2.434 4.948.057.944-.89 2.898-.623 1.46-1.364 2.927l1.671-1.76q.243.103.25.221.13 2.126-1.677 5.554.347-.14.651-.988.727 2.208.734 2.326.015.236-.457 4.175-.679 4.427-.815 6.094-.789 8.462-1.616 22.141.05.827-.071 2.73-.129 1.786-.115 2.022l.94 15.468q-3.37-.862-6.734-1.605-6.845-1.48-9.442-1.323l-2.362.144zm69.278-102.22l2.168.58-.014-.237-2.05-.586zm-7.113 3.869l.14.347.694-.28-.022-.353zm.936-7.997l.412.923.222-.25-.28-.695zm-32.728 1.634l.404.805.23-.133-.28-.694zm-7.15-8.454l.132.23 1.61-.81-.015-.236z" style="fill:#3e3748;stroke-width:2.95731" fill="#3e3748" stroke-width="2.957"/>
  <path d="M223.76 64.664q.583.156 1.25.115.38-.023 1.137-.164l1.047-.064q1.905-.116 3.033 1.154.023.38-.721.713-1.12.45-1.21.551l.041.667.858-.052q.285-.018 2.626-.829 2.334-.907 2.524-.918 1.048-.064 1.946.55-.263.399-.687 1.285-.525.797-.793 1.1l7.728-1.808.19-.012q.286-.017.387.072-.251.589-.747 1.862.464-.22 1.417-.278 2.57-.156 5.073 1.7 3.9 2.821 4.786 3.245-.174.297-.364.309-.19.011-1.66-.568-1.564-.574-2.242-.724-.678-.15-6.955-1.202-.39 1.457-2.58 1.59l-.476.03-.571.034q-2 .121-3.293.87.006.094.107.184.101.09.118.375.035.571-.323.975-.53.702-2.3 1.478-1.864.783-2.377 1.77l1.714-.104q.012.19.41.453-1.336 1.61-3.907 4.92.73 1.008.765 1.58-.005-.096-1.447 4.484.96-1.492 2.426-2.537 2.294-1.573 2.77-1.602.857-.052.938 1.28l.006.096q1.526-1.622 2.398-3.013 2.435-3.972 2.72-3.989.477-.029 1.005.8.571-.035 1.884-2.027 1.313-1.991 2.265-2.05.19-.01.79.43.5.353 1.357.3.19-.011 1.786-.49 1.59-.575 1.876-.592.19-.012 1.648.377-.615.898-2.205 1.473-1.59.574-2.115 1.37-.144.774-.914 2.255-1.007.73-2.686 1.406-1.4.563-2.11 1.466.947-.153.566-.13.286-.017.303.268.052.857-3.422 3.458-2.283 1.764-2.32 2.722l1.62-.098q-.007-.096.089-.101l.023.38q.011.191-1.218 1.986-1.33 1.706-1.312 1.992l.057.952q.19-.012.65-.326.363-.309.554-.32.19-.012.291.077.101.09.292.078l.005.095q.101.09.119.375.011.191-.586 1.374-.603 1.088-.663 1.666-.248 2.213-.94 6.556l.095-.005q.477-.03 1.507-.379.817 2.436 1.643 6.591.182-1.731 1.147-6.282.757-.142 1.96-.789.363-.308.29-3.076.046-2.392.999-2.45.19-.012.88.329.595.346.886.424l.184-3.261q.159-2.113.761-3.201.292.078 1.903 1.414.351-.5.47-3.279.158-2.112 1.73-2.972 1.01.894 1.545 1.817-.107-.184-.125-.47-.075-1.238.97-2.926.943-1.778 2.438-2.347.724.912 1.532 1.627.395-1.362 1.881-3.65l.476-.03q14.584 22.914 16.499 48.128l.816 10.273.033 8.41q3.189.57 4.998.46 1.62-.098 4.906-1.062-1.897-4.473-2.561-9.116-1.407-8.995-1.673-10.222-.22-.464-.849-1.382-.849-1.382-.982-3.573-.228-2.184-.445-4.178-.153-.947-1.013-2.52-.962-1.661-.985-2.042-.023-.381.133-.964.055-.673.031-1.054-.07-1.142-1.391-4.025-1.328-2.978-1.421-4.502-.035-.571.121-1.154-1.914-1.604-3.126-5.832-1.314-4.317-3.441-6.29.077-.292.06-.578-.093-1.523-1.374-3.74l-1.377-2.21-.093-1.524q.762-.046 1.183.598.416.548.725.911.71-.903 1.472-.95.952-.057 4.762 2.866.274-.208 1.14-1.695 1.838.366 4.765 4.49.496-1.273.877-1.296 1.333-.081 2.251 2.444.569 1.495.644 2.733l.006.095q.268-.303 1.639-1.342 1.169 1.936 1.233 2.983l.272 4.476q.822-.623 1.013-.635 1.324 1.353 1.475 3.83.04.666-.322 4.13.285-.018.966-1.398.586-1.373 1.538-1.431.286-.018.577.06.346-.594.326-2.505-.02-1.91.891-2.635.303.269 1.16.216l-.04-.666q-.04-.667-3.583-7.047l-.029-.476q.28-.113.947-.153l.285-.017q-.242-.846-1.876-2.563-2.347-2.438-2.46-2.718l1.294-.747q-1.868-.843-5.025-2.467-.915-.9-2.817-2.314-.678-.15-1.743-.372t-5.48-.527q-2.399-.141-4.43-2.12.262-.399 1.119-.45l.38-.024.286-.017q.381-.023.566-.13.003-1.53 2.193-1.663 1.143-.07 5.313.92.216-1.16.562-1.755l.477-.029q.857-.052 4.865 1.425.508-1.082 1.365-1.135.667-.04 4.3 1.555.06-.577.378-1.648l.476-.029q.19-.011 1.974 1.027 1.784 1.039 1.975 1.027.19-.011.833-.433.638-.516.924-.534.571-.034 3.08 1.916 2.81 2.219 3.203 2.386l-.156-2.571 4.346 2.316q-.213-.37-.866-1.668-.747-1.292-.765-1.578-.04-.667.817-.719.286-.017.97.228.97.228 1.356.3-.41-.453-2.71-2.13-1.796-1.228-1.86-2.276-.028-.476.229-.97-.679-.15-2.04-.545-3.123-1.052-7.314-.798l-.571.035q-.22-.465-.569-1.495-1.541-.193-2.208-.152-1.047.063-3.584.791-3.656 1.178-3.846 1.19l-2.482.055q.257-.494.568-1.66l-1.428.087q.476-.029-5.033 2.122-1.887.402-5.46 1.384-.655.23-2.406 1.293-1.281.938-2.805 1.03-.381.024-1.285-.686.34-.69 1.645-1.247 1.21-.551 1.198-.742-.04-.666-.546-1.114.53-.701 4.158-2.355.337-2.315 2.695-2.84 1.983-.408 3.96-.91-.321-.554-.783-1.864.571-.035 1.916.074 1.345.11 1.44.104 1.62-.098 3.489-.786 1.769-.776 2.816-.84 1.334-.08 2.32.433-.308-.364-1.128-1.27.644-.421 1.5-.474.191-.011 2.434.713 2.147.73 2.337.718l1.334-.081-.641-1.108q.542-.511 1.114-.546.38-.023 5.05 1.318-.315-.459-.338-.84-.063-1.047 3.08-1.238l.19-.012q1.523-.092 4.112.037-1.498-1.056-2.551-1.087-3.654-.352-3.775-2.352l-.018-.285q-.672-.055-2.005.026l-1.62.098-.946.153q-.571.035-1.553-.383-1.076-.413-1.117-1.08l-.017-.285-2.286.14-7.99 2.205-1.714.105-.012-.191q-.006-.095.245-.684-.666.04-2.346.716-1.685.58-1.78.586-.19.012-.774-.144-.583-.156-.868-.138-1.429.087-3.806 1.856-2.48 1.68-3.336 1.732-.476.03-.797-.525-.326-.65-.421-.643-.667.04-1.812 1.64-1.247 1.509-2.009 1.555-.285.017-.582-.156-.393-.167-.488-.161-.667.04-2.052 2.418-1.217 1.986-1.283 2.468-.162.488-.975 2.831-.335.785-1.212 2.081-.79-.43-1.697-2.764-1.34-3.169-1.767-3.907-.855-1.478-1.617-1.431.096-.006-1.393.658-2.708-3.659-6.907-5.124 1.68 2.479 1.686 2.574l.052.857-.269.303q-1.29-.782-4.632-2.3-3.812-1.392-4.955-1.323l-.632.612q-.638.517-1.78.586-.19.012-1.732-.181-1.636-.188-1.922-.17-.19.011-.66.135-.471.125-.662.136l.006.095q.081 1.334-2.057 2.324-3.621 1.75-3.806 1.856z" style="fill:#3e3748;stroke-width:2.38519" fill="#3e3748" stroke-width="2.385"/>
  <path d="M69.499 31.459c.734-1.137-1.132-2.598-2.433-3.328-1.302-.73-2.032-.73-3.046-.689-1.015.041-2.313.122-4.053-.933-1.741-1.055-3.932-3.245-5.883-3.77-1.951-.525-3.655.611-4.586 1.424-.93.813-1.092 1.3-1.541 1.744-.45.444-1.18.85-2.435.766-1.256-.084-3.04-.652-4.421-.935-1.38-.284-2.354-.284-3.409.37-1.054.652-2.19 1.95-3.692 3.125-1.502 1.175-3.368 2.23-4.135 2.917-.766.688-.442 1.012.044 1.336.485.324 1.134.648 2.714.65 1.58 0 4.095-.324 6.57-.122 2.477.202 4.911.932 6.656 1.5 1.744.568 2.8.973 4.176.813 1.377-.16 3.081-.89 4.016-1.374.934-.485 1.096-.728 1.622-1.015.526-.286 1.419-.61 2.556-.572 1.138.038 2.517.444 4.869.243 2.35-.201 5.677-1.013 6.41-2.15z" fill="url(#k)"/>
  <g>
    <path d="M176.241 81.078l.002.002h-37.745a4.16 4.16 0 00-4.169 4.169v10.63a4.16 4.16 0 004.169 4.168h39.54a4.16 4.16 0 004.17-4.169v-6.744c.142-3.708 4.307-8.056 4.307-8.056z" fill="#483737"/>
    <path d="M175.397 79.953l.002.002h-37.745a4.16 4.16 0 00-4.169 4.169v10.63a4.16 4.16 0 004.17 4.168h39.54a4.16 4.16 0 004.169-4.169V88.01c.142-3.708 4.307-8.056 4.307-8.056z" fill="#dddad5"/>
    <g aria-label="i-am-laffer" fill="#6f6f91">
      <path d="M151.427 88.29h-.826v-.852h.826zm-.007 4.166h-.812v-3.644h.812zM153.732 90.66h-1.72v-.755h1.72zM156.658 92.456h-.79v-.126l-.563.086q-.368.055-.559.055-.451 0-.451-.444v-1.313q0-.451.465-.451h1.115v-.837h-.79v.52h-.747v-.683q0-.45.466-.45h1.396q.458 0 .458.45zm-.783-.657v-.977h-.79v1.006zM161.269 92.456h-.82v-2.955l-.775.015v2.94h-.822v-2.955l-.776.015v2.94h-.826v-3.644h.826v.134l.574-.094q.35-.054.58-.054.285 0 .368.162.303-.047.606-.097.4-.065.614-.065.45 0 .45.444zM163.56 90.66h-1.721v-.755h1.72zM164.97 92.456h-.811V86.81h.811zM167.932 92.456h-.79v-.126l-.563.086q-.368.055-.559.055-.45 0-.45-.444v-1.313q0-.451.465-.451h1.114v-.837h-.79v.52h-.747v-.683q0-.45.466-.45h1.396q.458 0 .458.45zm-.783-.657v-.977h-.79v1.006zM170.126 87.528h-.606v1.284h.526v.704h-.526v2.94h-.82v-2.94h-.375v-.704h.376v-1.551q0-.451.458-.451h.967zM172.03 87.528h-.606v1.284h.527v.704h-.527v2.94h-.818v-2.94h-.376v-.704h.376v-1.551q0-.451.458-.451h.967zM174.69 92.005q0 .451-.466.451h-1.425q-.465 0-.465-.45v-2.743q0-.45.465-.45h1.425q.465 0 .465.45v1.339l-.227.227h-1.338v1.021h.775v-.606h.79zm-.79-1.714v-.873h-.776v.873zM177.586 90.335h-.819V89.5l-.653.015v2.94h-.826v-3.644h.826v.134l.51-.094q.306-.054.511-.054.451 0 .451.444z" />
    </g>
    <path d="M138.529 85.046c-.126 0-.163.07-.263.492-.076.321-.082.392-.069.783.014.345.032.484.096.7.044.148.08.294.08.324 0 .03-.049.102-.11.16a2.53 2.53 0 00-.454.696c-.219.522-.295 1.02-.317 2.07-.015.691-.01.853.034 1.07.16.786.43 1.31.94 1.822.563.564 1.299.925 2.274 1.117.228.045 3.527.046 3.763 0 .56-.112.811-.194 1.261-.414 1.04-.507 1.693-1.331 1.905-2.403.068-.343.092-1.199.048-1.731-.089-1.09-.266-1.638-.692-2.136-.093-.11-.17-.228-.17-.263s.033-.164.074-.285c.104-.307.152-.67.13-.986-.021-.296-.147-.831-.223-.947-.044-.067-.064-.074-.176-.056-.452.073-1.021.48-1.478 1.057-.098.124-.199.233-.225.243-.026.01-.125-.024-.22-.076-.382-.207-.828-.282-1.831-.305-1.223-.03-1.894.048-2.336.267a1.523 1.523 0 01-.293.122c-.027 0-.106-.08-.178-.177-.411-.562-1.21-1.144-1.57-1.144z" fill="#6f6f91"/>
  </g>
</svg>
